<svg width="146" height="122" viewBox="0 0 146 122" fill="none" xmlns="http://www.w3.org/2000/svg">
<path d="M33.4827 92.6931C33.774 92.7391 35.3684 92.8158 35.3684 92.5398C35.3684 92.3789 35.0771 92.3865 35.0771 92.3865C35.1154 91.1601 36.6715 90.8535 37.7829 91.4973C38.0893 91.6736 38.3725 91.8874 38.6261 92.1336C37.0547 92.2179 34.9698 93.291 35.1077 94.8471C35.187 95.2528 35.3571 95.6354 35.6054 95.9659C35.8536 96.2965 36.1736 96.5665 36.5412 96.7557C37.0006 97.0996 37.524 97.3486 38.0807 97.4881C38.6374 97.6276 39.2163 97.6548 39.7836 97.5683C40.794 97.3106 41.6831 96.7089 42.2978 95.8666C43.6872 95.9108 45.0465 95.4568 46.1305 94.5865C46.1762 94.5502 46.2141 94.505 46.2418 94.4536C46.2694 94.4022 46.2863 94.3457 46.2914 94.2875C46.2914 94.0192 46.2914 94.0346 44.7584 92.3329C44.715 92.2844 44.6606 92.2471 44.5998 92.2241C44.539 92.2011 44.4735 92.193 44.4089 92.2005C44.3443 92.208 44.2825 92.2309 44.2286 92.2673C44.1747 92.3036 44.1303 92.3524 44.0992 92.4095C44.0727 92.4429 44.0496 92.4789 44.0302 92.5168C43.9084 92.7455 43.7116 92.9252 43.4729 93.0257C43.2341 93.1262 42.968 93.1414 42.7194 93.0687C41.9529 92.8464 40.964 90.8151 39.1627 89.604C37.5913 88.5462 35.4833 88.2319 33.9963 89.489C33.3562 90.0385 32.9012 90.7719 32.6932 91.5893C32.6104 91.8414 32.6269 92.1155 32.7392 92.3559C32.9405 92.5509 33.2033 92.6702 33.4827 92.6931ZM36.3649 95.537C36.1547 95.3868 36.0088 95.1631 35.9563 94.9102C35.9037 94.6573 35.9483 94.394 36.0812 94.1725C36.4212 93.7027 36.8936 93.3451 37.438 93.1454C36.9988 93.89 36.6391 94.6788 36.3649 95.4986V95.537ZM43.5856 94.3258C43.7695 93.7739 43.5856 93.9656 43.8922 93.8276C44.1245 93.7118 44.3347 93.5562 44.5131 93.3677L45.2106 94.1955C44.633 94.5618 43.9943 94.8214 43.325 94.9621C43.4016 94.7628 43.5243 94.4562 43.5856 94.2875V94.3258ZM40.8107 92.3712C41.5389 93.2834 42.1445 94.0959 43.256 94.0039C43.0974 94.334 42.9691 94.6778 42.8727 95.0311C42.3131 95.0694 42.2365 94.9391 42.0142 95.0311C41.5773 95.1997 40.8567 96.7711 39.109 96.7634C39.2178 96.5203 39.2877 96.2617 39.316 95.9969C39.8105 95.897 40.2735 95.6787 40.6651 95.3607C40.8329 95.2152 40.942 95.0135 40.9717 94.7934C40.9717 94.5251 40.8797 94.1802 40.3125 93.728C40.5238 93.2803 40.6907 92.8131 40.8107 92.3329V92.3712ZM38.2352 95.2687C37.5606 94.9084 38.7104 94.2722 39.454 94.2952C39.6248 94.2965 39.7918 94.3461 39.9356 94.4383C40.0794 94.5306 40.1941 94.6617 40.2665 94.8164C40.1641 94.9813 40.0291 95.1235 39.8698 95.2344C39.7105 95.3452 39.5302 95.4224 39.3401 95.4612C39.1499 95.4999 38.9538 95.4994 38.7638 95.4597C38.5738 95.4201 38.3939 95.342 38.2352 95.2303V95.2687ZM39.1397 90.5775C39.6602 91.02 40.1329 91.5159 40.5501 92.0569C40.3076 92.4993 40.1221 92.9706 39.9982 93.4597C39.6761 93.3672 39.3384 93.3419 39.0061 93.3855C38.6738 93.429 38.354 93.5403 38.0666 93.7126C36.6638 94.4791 36.9934 96.1579 38.9404 95.9662C38.826 96.1867 38.7409 96.4212 38.6874 96.6638C37.9101 96.5089 37.1833 96.1639 36.5718 95.6596C37.1152 94.8153 37.5383 93.8995 37.8289 92.9384C38.1269 92.8015 38.4493 92.7256 38.7771 92.715C39.1048 92.7045 39.4314 92.7596 39.7376 92.8771L39.8986 92.2715L39.7299 92.1949C39.3697 91.9496 39.2087 91.758 38.7948 91.4284C38.9484 91.1484 39.0644 90.8495 39.1397 90.5392V90.5775ZM36.1656 89.3511C37.1248 89.3686 38.0536 89.6907 38.8178 90.2709C38.6805 90.5833 38.5777 90.9097 38.5111 91.2444C38.1437 90.956 37.7103 90.7637 37.2499 90.6847C36.7896 90.6058 36.3168 90.6427 35.8743 90.7921C36.036 90.3271 36.134 89.8424 36.1656 89.3511ZM34.4102 89.9489C34.8351 89.6183 35.3458 89.4161 35.8819 89.3664C35.6441 89.8817 35.4963 90.4339 35.445 90.9991C35.2166 91.1361 35.0297 91.3325 34.9042 91.5674C34.7786 91.8023 34.7192 92.0668 34.7322 92.3329C34.1951 92.3625 33.6577 92.2816 33.1531 92.0952C33.2671 91.2438 33.7136 90.4722 34.3949 89.9489H34.4102ZM22.9582 88.6688C21.5785 88.071 18.5124 89.8416 17.9528 90.7921C17.8719 91.0018 17.8719 91.234 17.9528 91.4437C18.4357 93.2757 22.9429 99.7452 23.7784 100.749C23.9241 100.933 24.1234 100.68 23.9931 100.466C23.5945 99.8065 23.6405 101.133 25.6794 94.5328C25.8683 94.4588 26.0442 94.3553 26.2007 94.2262C26.2718 94.1473 26.3111 94.0449 26.3111 93.9387C26.3111 93.8326 26.2718 93.7302 26.2007 93.6513C26.1311 93.5653 26.0513 93.4881 25.963 93.4213L26.446 91.6353L28.3623 92.6931C27.9747 93.6618 27.6921 94.6691 27.5191 95.6979C26.7462 95.9766 26.022 96.3749 25.3728 96.8784C24.9206 97.3766 25.6334 98.2965 26.078 98.8484C26.5226 99.4003 26.8982 99.7759 26.9825 99.8602C27.0668 99.9445 27.3351 99.8602 27.3121 99.7222C27.2635 99.6113 27.1989 99.508 27.1205 99.4156C26.7052 98.7691 26.3486 98.0868 26.055 97.3766C26.6508 97.0202 27.2797 96.7224 27.933 96.4875C28.1706 96.4031 28.9065 96.1732 29.1058 96.2958C30.0892 96.8139 31.115 97.2473 32.1719 97.5913C32.2146 97.6116 32.2636 97.6141 32.3082 97.5983C32.3528 97.5825 32.3892 97.5496 32.4096 97.5069C32.4299 97.4642 32.4324 97.4152 32.4166 97.3707C32.4008 97.3261 32.3679 97.2896 32.3252 97.2693L30.9991 96.4645C31.2815 95.8244 31.4625 95.1442 31.5357 94.4485L34.8088 96.2192C35.0081 96.3342 35.1614 96.0199 35.0158 95.9356C34.8701 95.8512 24.9359 89.535 22.9582 88.6688ZM21.7931 89.4814C22.0606 89.401 22.3458 89.401 22.6133 89.4814C22.7896 89.558 23.2189 89.788 23.8014 90.1099C23.6049 90.6524 23.4712 91.2157 23.4028 91.7886C22.8893 91.4973 22.5826 91.2751 22.1764 91.344C21.9549 91.3937 21.7478 91.4933 21.5708 91.6353C21.6475 91.0374 21.7165 90.5775 21.7931 89.4814ZM18.727 91.1677C19.522 90.4098 20.4864 89.8527 21.5402 89.5427C21.1311 91.3508 20.8442 93.1844 20.6816 95.0311C19.9087 93.8069 19.2566 92.5105 18.7347 91.1601L18.727 91.1677ZM22.207 97.6143C21.7854 96.9167 21.3255 96.1425 20.8886 95.3836C21.1492 94.2875 21.2335 93.7816 21.3945 92.7468C21.8139 93.4742 22.2988 94.1618 22.8433 94.8011C22.5342 95.7138 22.3235 96.6568 22.2147 97.6143H22.207ZM23.5485 99.8219C23.2725 99.3849 22.9199 98.7947 22.46 98.0358C22.751 97.0741 22.9436 96.0853 23.0349 95.0847C23.2035 95.491 24.7059 94.9084 25.1122 94.7551C24.8132 95.6979 23.7708 98.9787 23.5561 99.8219H23.5485ZM23.3185 94.8471C22.8435 94.025 22.4235 93.1723 22.0614 92.2945L22.299 92.1642C22.4063 92.2255 25.0279 93.7739 25.2195 93.8966C24.6221 94.2765 23.9878 94.595 23.3262 94.8471H23.3185ZM25.6181 93.1607C25.0432 92.7774 24.2613 92.3099 23.6634 91.9649C23.868 91.4222 24.002 90.8554 24.062 90.2786L26.239 91.505C26.2007 91.7963 25.94 92.3942 25.6641 93.1607H25.6181ZM30.6925 96.2268L29.5121 95.514C28.9875 95.3069 28.4039 95.3069 27.8794 95.514C28.1765 94.6179 28.392 93.6969 28.5233 92.7621L31.2981 94.2952C31.0146 94.9203 30.826 95.5843 30.7385 96.2652L30.6925 96.2268Z" fill="black"/>
<path d="M145.281 98.9557C144.039 87.3964 133.339 69.6205 126.946 59.9086C130.515 60.1941 134.098 60.2837 137.677 60.1769C138.697 60.1769 141.364 59.9929 141.878 59.8933C142.177 59.8319 142.223 59.5483 141.771 59.533C141.318 59.5177 138.099 59.3644 137.662 59.3567H129.866C128.671 59.4027 126.8 59.51 126.693 59.51C124.393 56.007 122.791 53.8147 122.776 53.807C122.758 53.7892 122.737 53.7753 122.714 53.7663C122.69 53.7573 122.665 53.7534 122.64 53.7549C122.615 53.7564 122.591 53.7632 122.568 53.7748C122.546 53.7865 122.527 53.8028 122.511 53.8226C122.496 53.8424 122.485 53.8653 122.479 53.8897C122.473 53.9141 122.473 53.9395 122.477 53.9641C122.482 53.9888 122.492 54.0121 122.506 54.0326C122.521 54.0531 122.54 54.0703 122.561 54.083C122.914 54.3666 138.405 77.0022 143.143 92.5935C145.021 98.7794 146.132 106.544 140.076 108.691C125.696 113.826 13.07 115.497 2.42292 109.457C0.943518 108.622 0.598579 106.882 0.88986 104.536C1.34211 101.278 3.09747 96.8707 5.21309 91.9342C7.597 94.2338 27.3735 112.393 30.5776 111.711C33.7817 111.029 51.8028 102.658 52.5464 101.056C52.9783 99.9432 53.2068 98.7618 53.2209 97.5683C53.3117 97.4434 53.3539 97.2898 53.3398 97.1361C53.3257 96.9823 53.2562 96.839 53.1443 96.7327C51.9561 95.5523 28.3853 76.8643 26.8676 76.9179C25.8098 76.9639 23.8934 78.0524 22.9813 78.589C22.6855 78.1051 22.2452 77.7263 21.7225 77.5063C21.1999 77.2862 20.6213 77.2359 20.0685 77.3625C19.5472 77.573 19.0805 77.899 18.7035 78.3159C18.3264 78.7328 18.0488 79.2297 17.8915 79.7694C17.9001 79.8108 17.9227 79.848 17.9555 79.8747C17.9883 79.9014 18.0293 79.916 18.0716 79.916C18.114 79.916 18.155 79.9014 18.1878 79.8747C18.2206 79.848 18.2432 79.8108 18.2518 79.7694C18.7128 78.9897 19.4437 78.4061 20.3061 78.129C20.6646 78.074 21.0315 78.1218 21.3639 78.267C21.6964 78.4122 21.9808 78.6488 22.1841 78.9492L13.6603 82.5902C13.2077 82.125 12.6427 81.7844 12.0199 81.6014C10.5635 81.2181 9.58232 82.1763 8.99975 83.5791C8.98693 83.6194 8.98841 83.6629 9.00395 83.7023C9.01949 83.7417 9.04814 83.7745 9.08507 83.7952C9.12199 83.816 9.16494 83.8233 9.20665 83.816C9.24836 83.8088 9.28629 83.7873 9.31403 83.7554C10.2952 82.3373 11.4297 81.8544 12.7864 82.9888C11.146 83.717 8.85411 84.7519 7.2444 85.549C7.35938 85.3651 23.9011 55.4091 23.9011 55.3324C24.6293 53.9833 26.0934 51.5687 27.6035 51.2545C28.286 51.1057 28.9822 51.0286 29.6808 51.0245C28.6153 52.7875 19.9688 67.1217 19.9535 69.1453C19.9535 71.4449 20.3521 71.0846 21.5785 71.4449C22.805 71.8052 91.4325 71.3836 91.5551 71.3836C92.7432 71.3836 97.3884 71.2303 97.8176 70.916C99.1514 69.9348 98.8525 68.4707 98.2699 66.93C98.1319 66.5621 97.4344 65.0367 96.4992 62.9977C100.524 61.7866 103.551 63.3273 103.827 69.8965C104.103 75.5765 101.865 77.3088 97.58 77.0636C94.1383 76.8643 91.7621 75.8524 91.0109 77.1939C90.1677 78.6886 92.4979 82.046 93.5098 83.4411C93.3641 83.4411 86.9482 83.3108 85.3309 83.2418C83.0518 83.1535 80.7697 83.1817 78.4934 83.3261C76.9259 83.3606 75.3674 83.5741 73.8482 83.9623C73.2733 84.2459 72.5298 85.7253 72.2155 86.3462C71.5946 87.565 68.7661 95.215 67.9843 97.4226C67.5244 98.695 65.9683 102.911 67.0108 103.655C66.9725 104.475 67.1028 105.571 67.8233 105.954C68.5439 106.337 78.4474 106.613 79.2063 106.629C80.5477 106.667 94.1077 106.843 102.762 106.46C111.416 106.077 115.195 105.249 114.973 105.272C115.192 105.207 115.39 105.083 115.543 104.912C115.696 104.741 115.798 104.532 115.839 104.306C115.957 103.74 115.92 103.152 115.731 102.604C116.697 100.726 109.392 85.1351 107.369 84.039C107.249 83.9717 107.115 83.9348 106.978 83.9317C106.571 83.9317 97.4804 83.5484 93.9467 83.4334C93.1801 82.3526 90.6889 78.2823 91.6471 77.4162C93.1035 76.1437 105.268 82.5213 104.617 69.8275C104.28 64.0862 101.635 60.7211 96.2693 62.6681C95.8017 61.6563 91.877 53.2704 90.8269 51.0398C94.8951 51.2833 98.9765 51.1935 103.03 50.7716C103.088 51.487 103.294 52.1825 103.634 52.8145C103.975 53.4464 104.442 54.001 105.008 54.4432C108.074 56.7428 120.277 56.3979 122.492 53.5847C123.113 52.7358 123.542 51.7622 123.75 50.7313C123.958 49.7003 123.939 48.6366 123.696 47.6134C123.9 47.4837 124.058 47.2934 124.148 47.0692C124.271 46.8316 124.148 46.5326 123.619 46.4253C122.937 46.3231 122.247 46.2821 121.557 46.3027C121.557 45.6741 121.595 44.5013 121.557 43.1676C121.626 43.1216 122.124 42.5237 122.178 42.4547C122.789 41.7409 123.271 40.9265 123.604 40.0478C123.857 39.3349 123.956 38.5147 123.289 38.1161C122.262 37.5566 121.542 38.5837 121.197 39.7335C120.875 37.9628 120.131 35.3643 118.353 35.6249C115.333 36.0848 117.418 43.4052 118.399 46.3027C117.537 46.1814 116.662 46.1814 115.8 46.3027C116.759 43.8958 117.249 40.7837 114.789 40.3161C114.416 40.2336 114.027 40.2622 113.67 40.3985C113.313 40.5347 113.004 40.7726 112.78 41.0826C112.731 40.9091 112.639 40.751 112.512 40.623C112.385 40.495 112.227 40.4013 112.054 40.3507C111.881 40.3002 111.698 40.2944 111.522 40.3339C111.346 40.3734 111.183 40.457 111.048 40.5767C109.921 41.3892 110.565 43.2519 111.876 43.8651C111.807 44.6531 111.807 45.4457 111.876 46.2337C111.06 46.1351 110.234 46.1532 109.423 46.2873C109.377 44.4157 109.172 42.5514 108.81 40.7147C109.275 40.3833 109.667 39.9587 109.96 39.4678C110.253 38.9769 110.441 38.4305 110.511 37.8632C110.619 36.8437 110.258 35.9928 109.408 35.7705C108.342 35.4946 107.714 36.2381 107.53 37.3036C106.587 36.0005 104.739 35.5329 103.843 37.0277C100.968 34.0382 99.5807 35.7092 100.309 37.0277C100.853 38.0395 102.271 38.6067 103.375 38.921C103.375 40.638 104.142 42.0868 105.092 43.5662C105.728 44.5627 106.441 45.5208 106.993 46.226C105.8 46.1877 104.607 46.2647 103.429 46.456C102.708 46.6476 102.593 47.1689 103.26 47.5445C103.049 48.4429 102.972 49.3676 103.03 50.2886C98.9124 50.0695 94.784 50.1669 90.6813 50.5799C90.4206 50.0204 89.6464 48.3876 89.5545 48.196C89.4625 48.0044 90.1983 45.7814 91.2332 25.1158C95.9856 24.7172 117.357 25.1924 119.319 24.4336C119.431 24.3932 119.531 24.3236 119.608 24.232C119.685 24.1405 119.736 24.0301 119.756 23.9123C120.407 21.7737 120.852 3.39229 119.756 1.68293C119.487 1.26134 118.529 1.13103 118 1.05438C111.171 0.0578866 82.671 0.487143 81.2069 1.26134C79.7429 2.03553 80.3638 9.59353 80.6397 11.0959C65.838 10.6207 31.6584 11.5482 28.439 12.7516C27.6724 13.0276 27.3888 14.0777 27.2355 14.8673C25.9631 21.4364 29.5351 42.5773 30.7309 49.1082C30.6542 49.1082 30.7309 49.1082 29.7957 50.5646C29.0042 50.5059 28.2084 50.5471 27.4272 50.6872C25.6795 50.9555 24.0697 53.3701 23.1806 54.8725C23.1422 54.9492 20.881 58.7051 20.5437 59.3184C18.6197 59.0194 9.6743 59.1344 8.53984 59.1957C7.40537 59.2571 6.24024 59.3414 5.21309 59.418C5.02913 59.418 5.0138 59.7706 5.21309 59.7783C7.35938 59.9086 8.14891 59.9546 9.81228 59.9776C13.8826 60.0389 19.8845 60.2075 20.0761 60.1845C19.6775 60.8821 13.7752 71.3836 12.9857 72.8706C9.55166 79.3095 6.85347 85.2041 6.6925 85.7024C5.80144 86.1076 4.96454 86.6226 4.20127 87.2354C3.95508 87.9108 3.80791 88.6182 3.76435 89.3357C3.72602 90.5698 4.17061 90.8688 4.85282 91.5587C3.02227 95.4809 1.51736 99.5469 0.353289 103.716C-0.0267363 105.402 -0.0424165 107.151 0.307297 108.844C0.620276 110.537 1.2053 112.167 2.03966 113.673C2.41445 114.054 2.90012 114.306 3.42708 114.394C5.44305 114.961 11.6903 115.689 13.7829 115.927C13.6252 116.863 13.5814 117.816 13.6526 118.763C13.6547 119.739 13.7966 120.709 14.0742 121.645C14.0767 121.668 14.0838 121.691 14.0949 121.711C14.1061 121.731 14.1212 121.749 14.1394 121.764C14.1575 121.779 14.1784 121.789 14.2007 121.796C14.2231 121.803 14.2465 121.805 14.2697 121.802C14.2928 121.8 14.3152 121.793 14.3357 121.781C14.3561 121.77 14.3741 121.755 14.3887 121.737C14.4033 121.719 14.4142 121.698 14.4207 121.676C14.4272 121.653 14.4293 121.63 14.4268 121.607C14.5494 120.651 14.5828 119.686 14.5264 118.724C14.5214 117.799 14.416 116.876 14.2122 115.973C15.27 116.065 16.2895 116.141 17.1786 116.172C17.0372 117.067 16.9987 117.974 17.0637 118.878C17.0662 119.854 17.2082 120.824 17.4852 121.76C17.4852 121.807 17.5038 121.852 17.5369 121.885C17.57 121.918 17.6148 121.936 17.6616 121.936C17.7083 121.936 17.7532 121.918 17.7862 121.885C17.8193 121.852 17.8379 121.807 17.8379 121.76C17.9646 120.805 18.0006 119.84 17.9452 118.878C17.9399 117.983 17.8371 117.091 17.6386 116.218C19.3479 116.256 44.5054 118.518 87.9524 117.659C99.596 117.429 113.593 116.892 125.121 115.628C124.969 116.552 124.926 117.491 124.991 118.426C124.995 119.399 125.139 120.368 125.42 121.3C125.415 121.326 125.415 121.352 125.421 121.378C125.428 121.403 125.439 121.427 125.456 121.448C125.472 121.468 125.493 121.484 125.517 121.496C125.541 121.507 125.567 121.513 125.593 121.513C125.619 121.513 125.645 121.507 125.669 121.496C125.692 121.484 125.713 121.468 125.73 121.448C125.746 121.427 125.758 121.403 125.764 121.378C125.77 121.352 125.771 121.326 125.765 121.3C125.899 120.345 125.935 119.38 125.873 118.418C125.864 117.471 125.754 116.528 125.543 115.605C126.394 115.513 128.364 115.267 128.533 115.244C128.382 116.164 128.34 117.098 128.41 118.027C128.41 119.003 128.552 119.974 128.831 120.909C128.837 120.956 128.86 120.999 128.897 121.028C128.933 121.058 128.98 121.071 129.027 121.066C129.074 121.061 129.117 121.038 129.146 121.001C129.175 120.964 129.189 120.918 129.184 120.871C129.31 119.918 129.344 118.955 129.284 117.996C129.279 117.052 129.168 116.111 128.954 115.191C132.411 114.723 142.982 113.297 144.423 110.346C146.124 106.981 145.986 102.604 145.281 98.9557ZM75.5269 86.6145C75.6113 86.4076 78.1791 85.848 80.9846 86.6145C81.0103 86.6091 81.0369 86.6094 81.0624 86.6156C81.088 86.6217 81.1118 86.6335 81.1322 86.65C81.1526 86.6665 81.169 86.6874 81.1803 86.7111C81.1916 86.7348 81.1975 86.7607 81.1975 86.787C81.1975 86.8132 81.1916 86.8392 81.1803 86.8629C81.169 86.8866 81.1526 86.9075 81.1322 86.924C81.1118 86.9405 81.088 86.9523 81.0624 86.9584C81.0369 86.9645 81.0103 86.9649 80.9846 86.9595C79.5876 87.2076 78.1612 87.2438 76.7534 87.0668C76.0942 86.9595 75.2587 86.9518 75.504 86.6145H75.5269ZM114.934 104.843C107.844 106.192 68.6742 105.885 68.0839 105.609C67.4937 105.333 67.44 104.444 67.4247 103.861C71.6713 105.241 113.164 104.176 115.471 102.957C115.594 103.632 115.624 104.712 114.911 104.843H114.934ZM100.056 86.6988C100.056 86.4382 101.742 86.2926 101.819 86.2849C102.822 86.2078 103.829 86.2078 104.831 86.2849C105.391 86.3462 106.165 86.4229 106.104 86.6605C106.043 86.8981 104.885 86.9978 104.686 87.0285C103.937 87.0975 103.184 87.1282 102.432 87.1204C101.926 87.1051 100.002 87.0131 100.033 86.6988H100.056ZM109.906 89.2514C111.824 92.9055 113.434 96.713 114.72 100.634C114.883 101.13 114.973 101.646 114.988 102.167C111.531 103.241 71.6866 104.344 67.6547 103.187C67.463 103.133 67.4094 103.187 67.3634 102.865C67.0721 100.78 70.4832 92.4938 71.2727 90.5622C85.7755 90.0792 109.753 89.3357 109.883 89.2514H109.906ZM103.452 38.576C102.613 38.1156 101.853 37.5258 101.198 36.8284C100.899 36.3761 100.968 36.0618 101.85 36.4911C102.402 36.744 103.176 37.1963 103.697 37.5106C103.563 37.8517 103.48 38.2107 103.452 38.576ZM121.848 39.9481C122.462 38.8443 123.067 38.5301 123.006 39.1816C122.676 40.3475 122.208 41.4696 121.611 42.5237C121.565 41.7572 121.511 41.2436 121.45 40.7377C121.48 40.6304 121.634 40.3084 121.825 39.9481H121.848ZM118.591 46.617C118.744 47.0539 118.844 47.3145 118.851 47.3298C118.86 47.3515 118.872 47.3714 118.889 47.3882C118.905 47.4049 118.924 47.4184 118.945 47.4276C118.967 47.4369 118.99 47.4418 119.013 47.4422C119.036 47.4425 119.06 47.4382 119.081 47.4295C119.418 47.2992 118.92 46.9849 118.123 42.3627C117.885 40.983 117.18 36.7287 118.575 36.5294C119.71 36.3608 120.323 39.1739 120.538 40.2854C120.935 42.4278 121.191 44.5942 121.304 46.7703C121.304 46.8127 121.318 46.8539 121.346 46.8864C121.373 46.9188 121.411 46.9402 121.453 46.9468C121.495 46.9533 121.538 46.9445 121.574 46.9219C121.61 46.8993 121.637 46.8645 121.649 46.8239C121.651 46.7805 121.651 46.737 121.649 46.6936C122.342 46.714 123.031 46.8091 123.703 46.9772C123.618 47.0771 123.51 47.1559 123.389 47.2072C121.779 48.035 116.912 47.8741 115.233 47.8434C115.463 47.3835 115.624 47.0309 115.8 46.6093C116.717 46.7599 117.651 46.7624 118.568 46.617H118.591ZM112.612 44.9383C112.788 43.4052 113.179 40.96 114.727 41.2512C116.276 41.5425 115.885 43.7885 115.548 45.2909C115.34 46.1528 115.084 47.0024 114.781 47.8357H112.481C112.463 46.8687 112.499 45.9013 112.589 44.9383H112.612ZM111.638 41.3356C111.674 41.3016 111.716 41.2755 111.763 41.2589C111.809 41.2423 111.858 41.2355 111.907 41.2392C111.956 41.2428 112.004 41.2566 112.048 41.2798C112.091 41.303 112.129 41.3351 112.159 41.3739C112.282 41.4961 112.392 41.6296 112.489 41.7725C112.271 42.2613 112.119 42.7768 112.037 43.3055C111.638 42.7536 111.125 41.7495 111.638 41.3356ZM109.224 36.6751C110.22 36.9893 109.438 39.6109 108.771 40.4081C108.587 39.583 108.312 38.781 107.951 38.0165C108.173 37.3419 108.549 36.4604 109.224 36.6674V36.6751ZM107.338 46.7013C107.714 47.1765 107.959 47.4678 107.959 47.4678C107.989 47.4979 108.03 47.5158 108.072 47.5183C108.115 47.5209 108.157 47.5078 108.191 47.4815C108.225 47.4552 108.248 47.4176 108.256 47.3756C108.264 47.3336 108.256 47.2901 108.235 47.2532C108.235 47.2532 106.878 45.3215 105.759 43.3209C104.916 41.7878 104.111 40.2547 104.333 38.5607C104.509 37.227 105.215 36.6597 106.403 37.4339C108.12 38.5377 108.902 45.3445 109.147 47.3988C109.149 47.4526 109.168 47.5043 109.201 47.5468C109.234 47.5894 109.28 47.6207 109.331 47.6364C109.538 47.6364 109.507 47.4142 109.5 47.3068C109.492 47.1995 109.5 46.6629 109.5 46.6093C110.314 46.7123 111.138 46.7123 111.952 46.6093C111.998 47.1689 112.052 47.6058 112.09 47.8357C109.369 47.8357 106.081 48.0197 103.827 47.1382C104.986 46.909 106.159 46.763 107.338 46.7013ZM103.666 47.8281C104.787 48.2626 105.969 48.5211 107.169 48.5946C108.526 48.7173 117.763 48.7326 118.813 48.6789C120.396 48.6529 121.964 48.3601 123.45 47.8127C123.593 48.754 123.539 49.7146 123.293 50.6341C123.046 51.5535 122.612 52.412 122.017 53.1555C120.154 55.3401 108.373 55.8383 105.544 53.8453C103.682 52.5652 103.344 50.005 103.666 47.8204V47.8281ZM97.4881 70.3334C97.649 70.847 24.5603 70.87 24.4837 70.8623C21.4176 70.8623 22.1841 70.8623 21.1569 70.6094C20.881 70.548 20.8273 70.548 20.7737 70.2798C20.7086 69.8589 20.6907 69.4321 20.72 69.0073C20.7361 69.0388 20.762 69.0641 20.7939 69.0793C20.8258 69.0945 20.8617 69.0989 20.8963 69.0916C20.8963 69.0916 97.465 68.0492 97.9633 68.0338C98.1703 68.9307 98.2009 69.7662 97.4881 70.3334ZM119.051 23.8127C119.051 23.8127 119.097 23.736 119.112 23.759C119.127 23.782 119.051 23.805 119.012 23.8127H119.051ZM80.931 4.48077C80.931 3.98252 81.1303 2.09686 81.5749 1.8669C82.5867 1.36099 114.743 0.931731 119.135 2.30382C119.901 3.91353 119.656 21.996 119.012 23.8127C115.241 24.4029 96.2616 24.3569 91.3251 24.8628C91.6241 18.8302 91.7544 13.7481 91.5091 12.7593C91.4618 12.6303 91.3853 12.5141 91.2856 12.4197C91.1858 12.3252 91.0656 12.2552 90.9342 12.2151C89.2555 11.4869 82.9393 11.2799 81.0996 11.2186C80.8609 8.98092 80.8045 6.72756 80.931 4.48077ZM27.9254 23.782C27.8104 22.1723 27.2432 14.0471 28.7762 13.4798C29.5428 13.2116 32.241 12.9433 36.1579 12.7133C43.6623 12.2457 55.4898 11.8701 66.2519 11.7935C68.6435 11.7935 88.8492 11.6172 90.8269 12.9739C91.4095 15.6261 89.5468 45.0916 89.1329 47.9354C71.0197 48.5256 49.5569 49.4148 31.2905 48.9702C30.9839 47.2149 28.6383 33.6703 27.9254 23.782ZM31.0528 49.4838C31.0543 49.4659 31.0543 49.448 31.0528 49.4301C43.9689 49.8287 84.388 48.5026 89.3092 48.472C89.8534 49.7367 97.4957 66.6924 97.8176 67.6352C97.7333 67.6352 20.835 68.6777 20.7353 68.7544C21.7012 65.5196 29.6884 51.8447 31.0528 49.4838ZM52.1248 100.841C51.5575 101.945 34.3719 109.626 30.8382 110.691C30.9067 110.338 30.9325 109.978 30.9149 109.618C36.1349 107.809 47.4643 103.034 52.5464 99.6532C52.4495 100.066 52.3082 100.467 52.1248 100.849V100.841ZM52.6537 99.1473C51.1206 100.052 49.6565 100.68 30.9072 109.204C30.9079 108.857 30.8615 108.512 30.7692 108.177C33.2221 107.027 49.8558 100.581 52.8223 98.0128C52.784 98.3424 52.7303 98.741 52.6537 99.155V99.1473ZM13.1697 83.4181C13.5383 83.8523 13.7664 84.3881 13.8239 84.9548C13.8814 85.5214 13.7655 86.0922 13.4916 86.5915C13.369 86.7832 13.6603 86.9825 13.7829 86.7832C14.2457 86.2788 14.5192 85.6295 14.557 84.946C14.5947 84.2625 14.3943 83.5871 13.9899 83.0348C17.7152 81.3255 21.3792 79.7158 22.3834 79.2788C22.6346 79.7892 22.7691 80.3491 22.777 80.9179C22.785 81.4866 22.6662 82.0501 22.4294 82.5672C22.3374 82.8125 22.6133 82.9045 22.7437 82.7436C23.1652 82.2079 23.4276 81.5644 23.5008 80.8866C23.574 80.2089 23.4551 79.5242 23.1576 78.9109C23.9854 78.4433 25.9171 77.3778 26.8599 77.3778C28.0404 77.3778 51.9945 96.863 52.439 97.3076C50.4384 99.3696 31.8654 106.721 30.3016 107.472C27.0056 106.705 6.8918 89.4047 5.00613 87.6264C6.17892 86.6529 11.8512 84.0313 13.1697 83.4181ZM4.42357 87.979C6.81514 90.3169 26.7679 107.732 30.11 108.284C30.0429 108.573 30.0121 108.869 30.018 109.166C24.6523 106.544 9.3217 93.268 4.24726 88.9984C4.27026 88.9984 4.38524 88.2472 4.44656 87.979H4.42357ZM4.53855 90.6082C4.32233 90.279 4.21507 89.8902 4.23193 89.4967C9.24504 94.5558 23.3952 106.997 30.0104 109.587C29.9967 109.997 30.038 110.407 30.133 110.806C26.2007 109.925 5.05979 91.2367 4.56154 90.6082H4.53855ZM144.047 110.093C139.095 119.92 4.72251 117.352 2.54557 113.52C1.62281 111.916 0.99944 110.157 0.705893 108.33C1.00159 108.978 1.49552 109.515 2.11631 109.863C13.3996 116.433 125.658 114.716 140.314 109.449C143.419 108.33 144.982 105.916 145.335 102.551C145.543 105.135 145.095 107.729 144.032 110.093H144.047Z" fill="black"/>
<path d="M29.2667 57.9616C83.4681 58.7281 88.6422 58.2605 90.1599 58.0229C90.5202 57.9693 90.7502 57.8466 90.7348 57.425C90.7348 56.3136 88.1286 51.2161 87.4387 50.8635C87.1321 50.7026 32.2485 51.4767 32.0569 51.5381C32.0212 51.5467 31.9877 51.5627 31.9587 51.5852C31.9296 51.6077 31.9056 51.636 31.8883 51.6684C31.367 52.5192 28.8221 56.7198 28.9371 57.6703C28.9496 57.7496 28.9893 57.8221 29.0495 57.8753C29.1096 57.9285 29.1865 57.959 29.2667 57.9616ZM32.2792 52.067C32.8311 51.998 86.8255 51.4614 87.1551 51.4921C87.7274 52.3153 88.2397 53.1786 88.6882 54.0753C87.4311 54.0753 31.2444 54.3742 30.9531 54.3819C31.2904 53.7074 31.735 52.9408 32.2792 52.067ZM30.7461 54.7498C31.0451 54.7498 87.8987 54.4586 88.8722 54.4356C89.3766 55.3748 89.7751 56.3671 90.0603 57.3944C87.3314 57.8313 62.4652 57.6167 29.5427 57.3944C29.8503 56.4659 30.2482 55.5699 30.7308 54.7192L30.7461 54.7498ZM71.5716 60.5678C71.4186 60.2293 71.1688 59.9438 70.8536 59.7474C70.5384 59.5509 70.1721 59.4523 69.8009 59.464C67.8539 59.464 51.5038 59.0117 50.032 59.6096C49.0925 60.7481 48.3655 62.0463 47.8858 63.4423C47.8398 63.7796 48.0084 63.9329 48.2154 63.9559C52.8146 64.4541 68.0608 64.9294 72.0161 64.2012C72.5067 64.1092 72.5681 63.5879 72.4684 63.0897C72.2311 62.2284 71.9313 61.3855 71.5716 60.5678ZM48.43 63.4423C48.8703 62.1985 49.4679 61.0161 50.2084 59.9239C51.3735 59.5407 66.5278 60.3378 69.8239 60.3302C70.0201 60.3232 70.2142 60.3729 70.3828 60.4736C70.5514 60.5742 70.6874 60.7214 70.7744 60.8974C71.147 61.6936 71.4372 62.5258 71.6405 63.381C67.7542 63.9865 51.2508 63.6416 48.43 63.4423ZM124.807 61.549C123.726 60.0619 118.307 60.1309 116.49 60.1845C114.957 60.1845 109.385 60.4375 109.385 61.9399C109.391 62.0616 109.426 62.18 109.488 62.2853C109.549 62.3906 109.634 62.4798 109.737 62.5455C109.883 62.6604 108.879 72.7633 110.258 78.1827C110.711 79.9764 111.293 80.8655 113.003 81.6091C116.283 83.0348 121.726 82.7205 123.91 79.6774C124.347 78.7882 124.255 76.1974 124.294 75.4078C127.689 76.0824 130.472 74.7026 131.192 71.0463C131.645 68.693 131.062 67.1523 130.058 66.2171C129.387 65.6709 128.594 65.2951 127.746 65.1216C126.899 64.9481 126.022 64.9821 125.19 65.2206C125.161 65.2305 125.13 65.2332 125.1 65.2285C125.07 65.2239 125.041 65.2121 125.016 65.1941C124.992 65.1761 124.971 65.1524 124.958 65.125C124.944 65.0976 124.937 65.0673 124.937 65.0367C124.937 64.6304 125.083 61.8786 124.807 61.549ZM110.243 61.7099C112.313 60.4988 120.744 60.4068 123.466 61.6409C123.558 61.6869 123.903 61.8632 123.903 61.9399C123.903 62.0165 123.55 62.2005 123.466 62.2388C121.411 63.1663 114.076 63.5879 110.22 62.1775C109.952 62.0319 110.22 61.7406 110.22 61.7099H110.243ZM125.405 66.0025C126.102 65.8017 126.837 65.7729 127.547 65.9184C128.257 66.0639 128.921 66.3795 129.483 66.838C130.311 67.6046 130.725 68.923 130.341 70.8776C130.265 71.5572 130.03 72.2091 129.654 72.7805C129.279 73.3519 128.773 73.8266 128.18 74.1661C126.923 74.7318 125.507 74.8403 124.179 74.4727C124.113 74.449 124.044 74.439 123.974 74.4433C123.905 74.4476 123.837 74.4662 123.776 74.4978C123.714 74.5295 123.659 74.5735 123.615 74.6272C123.571 74.6809 123.538 74.7431 123.519 74.8099C123.312 75.3925 123.604 77.7458 123.182 79.2328C121.243 81.862 116.283 82.0996 113.347 80.8655C111.86 80.2293 111.446 79.5701 111.048 77.9834C110.021 74.2197 109.959 66.5544 110.189 62.7831C112.604 63.9252 120.967 64.2548 124.255 62.5684C124.255 64.9447 123.964 65.3433 124.562 65.8262C124.678 65.9134 124.811 65.9744 124.952 66.0049C125.094 66.0353 125.241 66.0345 125.382 66.0025H125.405ZM50.9442 82.2453C48.9311 80.5379 46.7655 79.0189 44.4747 77.7074C43.5922 77.1867 42.6536 76.7676 41.6769 76.458C40.8567 76.2434 40.5117 76.6649 40.6804 77.2245C41.0259 78.0279 41.4826 78.7788 42.0371 79.4551C43.8009 81.6877 45.8291 83.698 48.0774 85.4417C51.4961 88.3009 55.9267 91.7656 59.1614 94.2262C59.3262 94.3466 59.5134 94.4329 59.712 94.48C59.9106 94.5272 60.1167 94.5341 60.318 94.5006C60.5193 94.467 60.712 94.3936 60.8845 94.2846C61.0571 94.1756 61.2062 94.0333 61.323 93.8659C61.8903 93.245 62.2429 92.1565 61.6067 91.5663C60.8708 90.9071 56.3713 86.6682 50.9442 82.2453ZM43.6009 80.5436L42.5507 78.8496C42.9246 78.6943 43.2407 78.4264 43.4552 78.083L45.1186 78.7576C44.7012 78.8404 44.3241 79.0619 44.0485 79.3861C43.773 79.7104 43.6152 80.1183 43.6009 80.5436ZM45.9541 82.4982C45.4001 82.032 44.8872 81.5191 44.421 80.9652C44.4747 80.0377 44.766 79.6238 45.6935 79.5931C46.3114 79.8883 46.895 80.2508 47.4335 80.6739C47.0213 80.7743 46.6534 81.0071 46.3862 81.3366C46.119 81.6662 45.9672 82.0742 45.9541 82.4982ZM59.0618 93.6513C58.2109 92.9384 46.8969 83.3414 46.1994 82.7282C46.2579 82.2991 46.4453 81.8978 46.7369 81.5775C47.0284 81.2572 47.4103 81.033 47.8321 80.9345C50.4766 82.8968 54.2786 86.1469 60.9091 91.666C60.651 91.6528 60.3932 91.6963 60.1537 91.7935C59.9142 91.8906 59.6989 92.0389 59.5228 92.2281C59.3468 92.4173 59.2143 92.6428 59.1346 92.8886C59.055 93.1345 59.0301 93.3948 59.0618 93.6513ZM119.802 102.144C120.76 102.796 121.427 102.497 122.048 101.593C123.581 99.4156 128.946 89.7803 128.946 89.7036C128.946 89.627 129.008 89.7726 128.755 86.6758C128.744 86.5594 128.702 86.4481 128.633 86.3535C128.564 86.2589 128.471 86.1846 128.364 86.1384C128.256 86.0921 128.138 86.0756 128.022 86.0906C127.907 86.1056 127.797 86.1515 127.705 86.2236L125.083 88.1322C125.083 88.1322 119.265 100.159 119.204 100.266C119.099 100.603 119.099 100.964 119.206 101.3C119.313 101.636 119.521 101.931 119.802 102.144ZM127.919 87.1588C127.965 87.7183 128.027 88.4618 128.073 88.9754C127.503 88.7029 126.907 88.4897 126.294 88.3392L127.919 87.1588ZM125.727 88.8605C126.391 89.3314 127.159 89.6363 127.965 89.7496C127.85 89.9489 121.994 100.634 121.933 100.742C121.755 100.38 121.462 100.086 121.1 99.9075C120.738 99.7287 120.328 99.6743 119.932 99.7529C120.53 98.6414 125.512 89.2437 125.727 88.8605Z" fill="black"/>
<path d="M122.201 73.6601C122.118 73.5442 122.013 73.4458 121.892 73.3708C121.771 73.2958 121.637 73.2456 121.496 73.2232C121.042 73.102 120.581 73.0099 120.116 72.9473C120.377 74.7716 120.53 76.7799 120.522 76.9562C120.511 77.0729 120.453 77.1803 120.363 77.255C120.273 77.3296 120.156 77.3655 120.039 77.3548C119.922 77.3413 119.815 77.2824 119.74 77.1907C119.666 77.099 119.63 76.9819 119.641 76.8642C119.641 76.7339 119.595 76.205 119.557 72.8706C118.023 72.679 110.642 72.1041 110.933 73.5758C110.933 73.6525 110.328 77.4085 112.673 79.2098C115.019 81.0112 119.71 80.6586 121.35 78.8266C121.816 78.2689 122.123 77.5965 122.239 76.8796C122.42 75.8129 122.407 74.7222 122.201 73.6601ZM124.041 66.723C124.041 67.068 123.581 69.7048 123.274 73.2462L123.642 73.3229C124.991 73.6092 126.396 73.456 127.651 72.8859C128.089 72.6428 128.451 72.284 128.699 71.8486C128.946 71.4133 129.069 70.9182 129.054 70.4177C129.106 69.7955 128.998 69.1704 128.74 68.6018C128.481 68.0333 128.082 67.5403 127.579 67.1699C127.077 66.7995 126.488 66.5639 125.868 66.4857C125.249 66.4075 124.62 66.4892 124.041 66.723ZM124.386 66.9837C124.875 66.9062 125.375 66.9345 125.852 67.0668C126.33 67.199 126.773 67.432 127.153 67.7502C127.517 68.0845 127.8 68.4985 127.978 68.9599C128.156 69.4213 128.225 69.9175 128.18 70.41C128.111 72.38 126.087 72.7556 124.148 72.5563C124.24 71.1613 124.317 69.5592 124.386 66.9837ZM116.176 21.9883C116.174 22.1248 116.199 22.2604 116.25 22.3873C116.3 22.5141 116.376 22.6296 116.471 22.7273C116.567 22.8249 116.68 22.9026 116.806 22.956C116.932 23.0094 117.067 23.0375 117.203 23.0385C117.412 23.043 117.617 22.9853 117.793 22.8728C117.969 22.7602 118.107 22.5978 118.19 22.4064C118.273 22.2149 118.297 22.0031 118.259 21.7979C118.221 21.5927 118.123 21.4034 117.977 21.2543C117.831 21.1051 117.644 21.0028 117.44 20.9603C117.235 20.9179 117.023 20.9373 116.83 21.0161C116.637 21.0949 116.471 21.2294 116.355 21.4026C116.238 21.5757 116.176 21.7796 116.176 21.9883ZM32.2794 47.2762C32.4557 47.6211 32.6856 47.6594 32.8313 47.5521C32.9769 47.4448 81.5213 47.0232 85.1316 46.8316C85.9081 46.8435 86.6823 46.7454 87.4312 46.5403C89.1559 45.0072 89.8305 16.3466 89.1559 15.0205C87.4312 11.5788 33.4521 13.7941 30.1331 14.7983C27.4885 15.5954 31.0606 44.8309 32.2794 47.2762ZM29.9874 16.04C29.9874 15.9021 30.1561 15.3655 30.2864 15.3272C33.9581 14.2234 87.2703 12.4067 88.719 15.2888C88.8426 15.8655 88.8991 16.4545 88.8876 17.0442C89.018 20.3863 88.8876 27.5457 88.5427 33.9615C88.4737 35.188 87.9295 45.2372 87.1323 46.1494C83.9512 46.8239 34.9316 46.9772 32.7546 47.0615C31.5128 44.1794 28.83 21.0991 29.9874 16.04ZM117.303 5.08631C117.511 5.09087 117.716 5.03336 117.892 4.92112C118.067 4.80887 118.205 4.64695 118.289 4.45596C118.372 4.26497 118.396 4.05354 118.359 3.84856C118.322 3.64358 118.224 3.45432 118.079 3.30485C117.934 3.15538 117.748 3.05246 117.544 3.00918C117.34 2.9659 117.128 2.98421 116.935 3.0618C116.741 3.13938 116.576 3.27272 116.458 3.44486C116.341 3.617 116.277 3.82016 116.276 4.0285C116.273 4.16567 116.297 4.30208 116.347 4.4298C116.397 4.55751 116.472 4.67397 116.568 4.77241C116.664 4.87084 116.778 4.94929 116.904 5.00318C117.03 5.05707 117.166 5.08533 117.303 5.08631Z" fill="black"/>
<path d="M44.9883 35.3566H54.0947C55.1485 35.3525 56.1576 34.9305 56.9006 34.1833C57.6436 33.436 58.0597 32.4244 58.0577 31.3706V23.9813C58.0578 22.9252 57.642 21.9116 56.9003 21.1599C56.1586 20.4082 55.1507 19.9788 54.0947 19.9647H44.9883C44.4603 19.9626 43.9371 20.0651 43.4488 20.2663C42.9606 20.4674 42.517 20.7632 42.1436 21.1366C41.7702 21.51 41.4745 21.9536 41.2733 22.4418C41.0722 22.93 40.9697 23.4532 40.9717 23.9813V31.3706C40.9737 31.8961 41.0792 32.416 41.2821 32.9007C41.4851 33.3854 41.7815 33.8254 42.1545 34.1955C42.5275 34.5656 42.9697 34.8587 43.4559 35.0579C43.9422 35.2571 44.4629 35.3586 44.9883 35.3566ZM41.6233 23.9813C41.6372 23.0953 41.997 22.2498 42.6257 21.6254C43.2544 21.001 44.1023 20.6471 44.9883 20.6392H54.0947C54.5422 20.6341 54.9863 20.7178 55.4013 20.8853C55.8163 21.0528 56.194 21.3009 56.5125 21.6152C56.8311 21.9295 57.0843 22.3038 57.2574 22.7165C57.4305 23.1292 57.5201 23.5721 57.5211 24.0196V31.3706C57.5191 31.8186 57.4289 32.2617 57.2556 32.6748C57.0823 33.0879 56.8294 33.4628 56.5112 33.7781C56.193 34.0935 55.8159 34.343 55.4012 34.5126C54.9866 34.6821 54.5427 34.7684 54.0947 34.7664H44.9883C44.5444 34.7644 44.1052 34.6749 43.6959 34.5032C43.2865 34.3314 42.915 34.0808 42.6025 33.7654C42.29 33.4501 42.0427 33.0763 41.8747 32.6654C41.7067 32.2545 41.6212 31.8146 41.6233 31.3706V23.9813ZM69.6093 40.8296C69.7626 41.2819 70.1459 41.1822 70.2532 40.8986C70.3988 40.4923 71.2497 37.5719 71.357 37.066C71.9472 36.882 70.2838 37.4569 75.4273 35.5865C75.4806 35.5659 75.5264 35.5296 75.5588 35.4824C75.5911 35.4352 75.6084 35.3793 75.6084 35.3221C75.6084 35.2649 75.5911 35.209 75.5588 35.1618C75.5264 35.1146 75.4806 35.0783 75.4273 35.0576L67.5473 31.9072C67.4989 31.8843 67.4454 31.8745 67.392 31.8787C67.3386 31.883 67.2873 31.9011 67.2431 31.9313C67.1989 31.9616 67.1634 32.0028 67.1401 32.0511C67.1168 32.0993 67.1066 32.1527 67.1104 32.2061C67.1104 32.2061 69.1877 39.6108 69.6093 40.8296ZM67.8999 32.7274L74.5381 35.3413C73.6489 35.6709 72.1465 36.2381 71.426 36.5294C71.104 36.652 70.9737 36.7057 70.8971 36.8053C70.8204 36.905 71.0887 36.3071 69.9619 39.7795L67.8999 32.7274ZM85.9901 10.2527C85.9991 10.2987 86.024 10.34 86.0604 10.3695C86.0969 10.3989 86.1425 10.4146 86.1894 10.4137C86.3503 10.4137 91.3098 10.8889 92.3216 10.6206C92.9732 10.4443 93.0881 9.29455 93.1494 8.62C93.2261 7.60051 93.1495 5.10162 92.7202 4.25077C92.1376 3.10098 87.8374 3.48424 86.5879 3.70654C86.2563 3.7532 85.9393 3.87369 85.6604 4.05914C85.498 4.24763 85.4036 4.48515 85.3922 4.73369C85.3846 6.58992 85.5851 8.44116 85.9901 10.2527ZM86.2123 4.64937C87.4235 4.27377 90.8729 4.12813 91.969 4.64937C92.3446 5.64586 92.5439 9.07225 92.0916 9.86944C91.3788 10.0534 87.0249 10.0534 86.2967 10.0611C86.2737 9.46318 85.9211 6.23609 86.2123 4.64937ZM96.2769 10.222C96.2872 10.2674 96.3125 10.3079 96.3486 10.3371C96.3848 10.3663 96.4297 10.3825 96.4762 10.383C96.6372 10.383 101.597 10.8583 102.608 10.59C103.26 10.4137 103.375 9.26389 103.444 8.58934C103.513 7.56985 103.444 5.07096 103.007 4.22011C102.424 3.06265 98.1242 3.45358 96.8748 3.67588C96.544 3.72569 96.2277 3.84593 95.9473 4.02848C95.7883 4.21902 95.6943 4.45534 95.679 4.70303C95.6719 6.55924 95.8724 8.41043 96.2769 10.222ZM96.4992 4.61871C97.7103 4.23544 101.16 4.09747 102.256 4.61871C102.631 5.6152 102.831 9.04159 102.378 9.83112C101.666 10.0228 97.3117 10.0227 96.5835 10.0304C96.5605 9.43252 96.2079 6.20543 96.4992 4.61871ZM107.039 10.5593C107.048 10.6053 107.073 10.6466 107.109 10.6761C107.146 10.7055 107.191 10.7212 107.238 10.7203C107.399 10.7203 112.359 11.1955 113.371 10.9273C114.022 10.751 114.137 9.60116 114.198 8.92661C114.275 7.90712 114.198 5.40824 113.769 4.55739C113.187 3.40759 108.886 3.79086 107.637 4.01315C107.306 4.06179 106.989 4.18212 106.709 4.36575C106.547 4.55424 106.452 4.79176 106.441 5.0403C106.434 6.89654 106.634 8.74777 107.039 10.5593ZM107.261 4.95598C108.472 4.58038 111.922 4.43474 113.018 4.95598C113.394 5.95247 113.593 9.37886 113.141 10.1761C112.428 10.36 108.074 10.36 107.346 10.3677C107.323 9.76979 106.97 6.5427 107.261 4.95598ZM96.3459 22.0113C96.3995 22.1646 96.5222 22.1799 96.5452 22.1723C96.7138 22.1723 101.666 22.6475 102.677 22.3792C103.329 22.2029 103.444 21.0531 103.513 20.3786C103.582 19.3591 103.513 16.8602 103.084 16.017C102.493 14.8596 98.1932 15.2505 96.9514 15.4651C96.6176 15.5127 96.2984 15.633 96.0163 15.8177C95.8558 16.0103 95.7617 16.2496 95.748 16.4999C95.7408 18.3536 95.9413 20.2023 96.3459 22.0113ZM96.5758 16.4079C97.787 16.0323 101.229 15.8867 102.325 16.4079C102.7 17.4044 102.9 20.8308 102.447 21.628C101.735 21.812 97.3884 21.812 96.6602 21.8197C96.6295 21.2218 96.2769 17.9947 96.5758 16.4079ZM114.267 15.7027C115.494 13.8937 116.567 12.261 116.605 12.1844C116.644 12.1077 116.084 11.4178 115.754 11.9084C113.409 15.5188 113.731 15.1738 113.562 15.1125C112.213 14.6219 107.859 14.7906 107.177 15.4268C106.717 15.856 106.893 17.4121 106.947 18.079C106.456 17.803 106.081 17.6037 105.943 17.5501C105.59 17.4121 105.613 17.757 105.805 17.8797L107.001 18.6462C107.098 19.6536 107.254 20.6544 107.468 21.6434C107.476 21.6901 107.5 21.7323 107.537 21.762C107.574 21.7918 107.62 21.8068 107.668 21.8043C107.829 21.8043 112.788 22.2796 113.8 22.0113C115.118 21.6434 114.712 16.8065 114.267 15.7027ZM107.691 16.017C109.494 15.6067 111.362 15.5728 113.179 15.9174L110.519 20.1103C110.251 19.957 108.817 19.1138 107.622 18.4393C107.571 17.6391 107.594 16.836 107.691 16.04V16.017ZM113.57 21.2294C112.849 21.4211 108.503 21.4211 107.775 21.4287C107.775 21.1221 107.66 20.118 107.606 19.0065L110.519 20.8155C110.593 20.8236 110.667 20.8105 110.734 20.778C110.8 20.7454 110.856 20.6946 110.895 20.6315C111.14 20.3173 112.374 18.5236 113.631 16.6762C113.869 18.056 113.945 20.5702 113.585 21.2294H113.57ZM83.0926 4.83334C83.3006 4.83637 83.5048 4.77756 83.6793 4.66436C83.8538 4.55117 83.9908 4.38869 84.0729 4.19754C84.1549 4.00639 84.1784 3.79517 84.1402 3.59068C84.102 3.38619 84.004 3.19764 83.8585 3.04894C83.7131 2.90024 83.5267 2.79809 83.3231 2.75545C83.1195 2.71281 82.9078 2.7316 82.7149 2.80944C82.522 2.88727 82.3566 3.02065 82.2396 3.19264C82.1226 3.36464 82.0593 3.56751 82.0578 3.77553C82.0577 4.05214 82.166 4.31777 82.3594 4.5155C82.5528 4.71323 82.816 4.82732 83.0926 4.83334Z" fill="black"/>
</svg>
