<svg width="147" height="146" viewBox="0 0 147 146" fill="none" xmlns="http://www.w3.org/2000/svg">
<path d="M146.397 6.47657C146.339 5.02706 146.231 3.57832 146.131 2.12958C146.131 0.437846 144.73 0.0821764 143.974 0.772054C138.46 5.95993 129.083 14.0967 123.987 18.5556C123.797 18.7228 123.663 18.9434 123.601 19.1884C123.54 19.4334 123.553 19.6913 123.641 19.9283C123.729 20.1652 123.886 20.3701 124.092 20.516C124.299 20.6618 124.544 20.7419 124.797 20.7455C124.762 20.8736 124.73 21.0031 124.702 21.1349C115.883 24.4511 106.894 27.2951 97.7721 29.6549C95.8818 30.1486 90.8219 31.3727 90.188 31.5268C90.3679 31.0179 90.7227 30.5895 91.1891 30.318C93.4304 28.752 93.967 29.0149 95.0279 27.9203C95.2668 27.6684 95.4102 27.3409 95.4332 26.9945C95.4563 26.6481 95.3577 26.3045 95.1544 26.0231C94.7075 25.5272 93.8329 25.4459 93.6665 24.8541C93.3269 23.6338 95.4449 21.788 95.3345 20.143C95.2088 18.2712 92.8049 15.734 89.1509 15.2043C87.0699 14.8736 84.9457 14.9302 82.8853 15.3714C81.3382 15.6913 79.9229 16.4684 78.8227 17.602C77.9572 18.5011 76.658 19.5505 76.2211 20.7448C75.9604 21.4347 75.873 22.2311 75.3012 22.6243C75.0728 22.7471 74.8214 22.8212 74.5629 22.8417C74.3045 22.8623 74.0445 22.829 73.7996 22.7439C71.178 22.0824 69.5936 19.3865 67.0878 18.2168C65.9727 17.7126 64.7389 17.5301 63.5256 17.6899C62.3123 17.8497 61.1678 18.3455 60.2213 19.1213C59.7885 19.6039 59.2481 19.9776 58.6437 20.212C58.2718 20.2776 57.89 20.2606 57.5254 20.1622C54.6831 19.4325 52.7614 17.5798 50.0249 17.1973C48.7523 17.0244 47.4567 17.1627 46.2493 17.6003C45.0419 18.0379 43.9586 18.7618 43.0924 19.71C42.6673 20.1271 42.3436 20.6362 42.1461 21.198C41.9487 21.7599 41.8827 22.3595 41.9533 22.9508C42.3366 24.5544 44.0666 25.3524 44.7941 25.6214C46.0205 26.0752 47.3834 26.401 48.3784 27.2794C48.5385 27.3986 48.6592 27.5631 48.7248 27.7516C48.8651 28.1916 48.3807 28.5948 47.9399 28.6975C47.4425 28.7371 46.9479 28.8069 46.459 28.9068C46.4474 28.9091 46.4368 28.9151 46.429 28.924C46.4212 28.9329 46.4165 28.9441 46.4157 28.9559C46.4149 28.9677 46.4181 28.9794 46.4247 28.9893C46.4312 28.9991 46.4409 29.0065 46.4521 29.0103C47.6006 29.4233 48.8248 29.5835 50.041 29.4802C50.6482 29.4088 51.2187 29.1517 51.6743 28.7439C52.1299 28.3362 52.4485 27.7977 52.5866 27.202C52.6284 26.8477 52.6451 26.4909 52.6364 26.1343C52.7759 24.9078 53.5923 25.1723 54.5995 25.889C55.7161 26.6966 57.0061 27.2319 58.3665 27.4521C59.7269 27.6722 61.1199 27.5711 62.4342 27.1568C63.4667 26.8264 64.0792 25.7602 65.1661 25.7602C65.4322 25.7605 65.6928 25.8357 65.9182 25.977C66.1436 26.1184 66.3247 26.3203 66.4409 26.5597C66.5254 26.8998 66.6277 27.2352 66.7475 27.5646C64.0406 27.7877 61.3852 28.4328 58.8775 29.4763C57.501 30.0554 56.277 30.9447 55.3009 32.0749C54.3179 31.8425 53.2944 31.8425 52.3114 32.0749C49.8585 32.7011 49.0782 34.8896 48.7026 36.5246C48.6995 36.5726 48.71 36.6205 48.7328 36.6629C48.7556 36.7052 48.7898 36.7404 48.8315 36.7643C48.8732 36.7882 48.9208 36.8 48.9689 36.7983C49.017 36.7966 49.0636 36.7814 49.1035 36.7545C50.5732 35.7004 52.1984 34.8821 53.9204 34.3292C53.238 36.1143 53.1813 38.0781 53.7594 39.8996C52.2478 40.2967 50.6028 40.6523 49.67 41.9255C48.8786 43.0589 48.4225 44.3922 48.3538 45.7728C48.0973 49.3782 48.5702 52.9983 49.7443 56.4168C49.7539 56.4466 49.7678 56.4747 49.7857 56.5004C48.8344 57.0171 47.9131 57.5873 47.0262 58.2082C46.4258 58.526 45.8181 58.8327 45.2034 59.128C45.2057 59.1107 45.2057 59.0932 45.2034 59.0759C45.1856 58.8413 45.0947 58.6182 44.9434 58.4381C44.7922 58.2579 44.5882 58.1298 44.3602 58.0717C43.6699 57.8947 42.961 57.8008 42.2484 57.792C37.8202 57.3596 37.929 57.332 37.2552 57.332C36.9744 57.2994 36.69 57.3399 36.4295 57.4498C36.169 57.5597 35.9415 57.7351 35.7689 57.9591C35.7134 58.0548 35.6796 58.1615 35.6698 58.2718C35.66 58.382 35.6745 58.493 35.7123 58.597C35.7501 58.701 35.8102 58.7955 35.8885 58.8737C35.9667 58.952 36.0612 59.0121 36.1652 59.0498C38.2264 60.3583 38.8044 59.9819 40.3428 61.0712C29.1829 64.7275 19.1789 62.9515 18.3127 63.127C18.1541 63.1999 18.0076 63.2966 17.8781 63.4137C17.2236 62.8816 16.5334 62.395 15.8123 61.9573C15.5602 61.8075 15.2681 61.7386 14.9756 61.76C14.6831 61.7814 14.4042 61.892 14.1765 62.0769C13.6108 62.4939 13.18 63.0136 12.6611 63.4398C10.537 65.1844 7.92547 65.9501 7.86108 67.2854C7.82506 68.0305 8.43598 68.0742 8.70427 68.0934C11.0629 68.2129 12.7469 67.2724 16.0714 67.2057C16.283 67.2011 16.3151 67.2103 16.378 67.1812C16.4662 68.9005 18.1019 69.6778 19.73 70.1921C31.7554 74.0125 46.4651 73.8983 61.5612 68.3433C62.1655 68.0558 62.7856 67.8027 63.4185 67.5852C60.9656 70.9019 60.7939 71.0529 60.4121 71.8908C58.8162 71.2898 58.3724 71.0299 57.7178 70.7739C55.8669 71.5019 53.9582 72.0732 52.0117 72.4818C50.2869 72.8469 48.5401 73.0989 46.7824 73.236C47.4348 73.9144 47.0615 73.6706 53.2665 79.6197C54.7783 81.2665 56.5507 82.6536 58.5127 83.7252C59.8809 84.4315 61.3883 84.8268 62.9271 84.8827C64.3689 84.7981 65.7586 84.3137 66.9407 83.4838C69.2942 81.8682 71.41 79.931 73.2262 77.7287C76.9339 73.2514 77.3885 73.1686 80.1158 68.0504C80.729 68.4337 86.2243 67.6557 89.2191 60.1352C89.9862 58.085 90.6486 55.9971 91.2037 53.8796C92.3581 50.1635 93.1539 46.3453 93.5799 42.4774C97.8847 41.4273 100.333 40.0008 107.239 36.6618C111.73 34.5143 116.037 32.0019 120.117 29.1498C122.351 27.531 124.42 25.6957 126.294 23.6706C126.326 23.6206 126.343 23.5617 126.341 23.502C126.935 23.2633 127.454 22.8678 127.842 22.3576C128.23 21.8473 128.472 21.2415 128.543 20.6045C128.835 20.6045 129.126 20.6252 129.415 20.6666C125.474 29.658 116.579 41.415 110.503 49.6322C92.4132 74.07 66.0331 104.816 39.3831 119.179C38.7254 119.528 32.9036 122.901 32.5043 122.51L35.7766 125.841C28.9424 130.424 21.2034 133.485 13.0835 134.818C13.0145 134.824 12.9496 134.853 12.9003 134.902C12.8855 134.932 12.8779 134.964 12.8779 134.998C12.8779 135.031 12.8855 135.064 12.9003 135.094C13.1302 136.262 13.8967 136.445 17.6466 139.693C13.1501 142.272 8.25278 143.912 0.832764 144.779V144.937C10.6267 145.97 19.8787 143.08 24.3844 140.498C22.7854 139.108 20.6698 138.233 19.0624 136.834C24.3009 135.543 36.6098 132.228 43.8551 127.424C42.7727 126.324 40.1244 124.65 39.0328 123.551C39.4077 123.967 46.4781 120.07 47.2278 119.679C63.4583 111.1 77.4705 100.314 91.4244 86.7247C95.8879 82.3861 100.316 78.1219 104.482 73.5334C110.092 67.3521 122.779 52.2614 134.105 36.5652C136.605 33.2709 138.886 29.8158 140.934 26.2224C141.116 25.8575 141.366 25.9058 141.517 26.2722C141.858 27.1047 142.158 27.8543 142.442 28.6485C142.537 28.9054 142.713 29.1243 142.944 29.2718C143.175 29.4193 143.448 29.4874 143.721 29.4657C143.995 29.444 144.253 29.3338 144.458 29.1517C144.663 28.9696 144.803 28.7256 144.856 28.4568C146.168 21.208 146.685 13.8376 146.397 6.47657ZM16.3864 66.7558C14.787 66.6911 13.1869 66.8632 11.6378 67.2663C10.6797 67.4521 9.70693 67.5514 8.7311 67.5629C8.36316 67.5238 8.49424 67.1183 8.64294 66.9351C9.55128 65.9593 10.2151 66.0421 13.3004 63.6766C13.8515 63.1975 14.5713 62.1727 15.2742 62.3735C15.6711 62.5409 16.0388 62.7704 16.3634 63.0534L17.5278 63.8682C16.956 64.7437 16.5678 65.726 16.3864 66.7558ZM40.7621 60.9363C40.5333 60.5587 40.1764 60.2761 39.7564 60.1398C38.6305 59.7465 37.5476 59.2393 36.5247 58.6259C36.4205 58.5554 36.3009 58.4481 36.3224 58.3347C36.3507 58.1814 36.593 58.0058 36.8382 57.9514C37.3135 57.8794 37.3334 57.9169 43.402 58.5163C44.0061 58.5754 44.5986 58.6696 44.6369 59.0951C44.6366 59.1438 44.6493 59.1917 44.6739 59.2338C44.6984 59.2759 44.7339 59.3106 44.7764 59.3342C43.4688 59.941 42.1289 60.4759 40.7629 60.9363H40.7621ZM85.6425 22.2518C86.4601 21.8693 87.2578 21.4456 88.0325 20.9824C88.3252 20.8395 88.651 20.7778 88.9757 20.8038C89.3004 20.8298 89.6121 20.9426 89.8783 21.1303C89.7834 21.1675 89.6992 21.2275 89.6331 21.3051C89.5671 21.3826 89.5212 21.4753 89.4997 21.5749C89.4983 21.6278 89.5152 21.6795 89.5475 21.7213C89.5799 21.7632 89.6256 21.7926 89.6771 21.8047C89.7286 21.8168 89.7826 21.8107 89.8302 21.7876C89.8777 21.7644 89.9159 21.7256 89.9381 21.6776C89.9586 21.6363 89.9924 21.603 90.0341 21.5831C90.0758 21.5632 90.123 21.5579 90.1681 21.568C90.3012 21.6081 90.4223 21.6806 90.5207 21.7788C90.5928 21.852 90.6847 21.9026 90.7851 21.9245C90.8241 21.9265 90.8629 21.9188 90.8981 21.9021C90.9333 21.8853 90.9637 21.8601 90.9867 21.8286L91.1101 21.857C91.7909 23.1345 92.216 24.5324 92.3619 25.9725C92.4055 26.5816 92.3187 27.1931 92.1072 27.766C91.8957 28.3388 91.5644 28.86 91.1354 29.2947C90.0692 30.226 89.1655 30.1156 88.6657 30.981C88.2671 31.569 88.9608 31.2547 87.5105 31.2654C86.2111 31.2814 84.9312 30.9484 83.8043 30.3011C84.0687 30.1506 84.3492 30.0305 84.6406 29.9431C85.0593 29.811 85.4209 29.5407 85.6662 29.1766C85.8186 28.8062 85.8307 28.3929 85.7005 28.0141C85.5703 27.6354 85.3066 27.317 84.9587 27.1185C84.7207 26.9882 84.5097 26.8136 84.3371 26.6041C83.5859 25.4152 85.0783 23.5579 84.0504 22.2349C84.3 22.3488 84.5707 22.4092 84.845 22.4121C85.1194 22.415 85.3913 22.3604 85.6432 22.2518H85.6425ZM81.1905 25.6038C81.645 25.4459 82.5879 26.0921 82.8255 26.4524C83.1536 26.946 84.1815 28.2376 84.183 28.7351C84.1579 28.8652 84.1057 28.9885 84.0297 29.0971C83.9538 29.2056 83.8558 29.297 83.7423 29.3652C83.5491 29.4802 83.361 29.6031 83.1781 29.7339C83.0122 29.5424 82.8627 29.3373 82.7312 29.1207C82.959 28.8878 83.1227 28.6 83.2064 28.2851C83.2086 28.2771 83.2088 28.2686 83.2071 28.2604C83.2055 28.2523 83.2019 28.2446 83.1968 28.238C83.1917 28.2314 83.1851 28.2261 83.1776 28.2224C83.1701 28.2188 83.1619 28.2169 83.1536 28.2169C81.2541 28.2161 80.4661 25.8537 81.1912 25.6038H81.1905ZM67.5125 28.0674C68.4231 28.2974 68.5174 27.6022 75.489 28.1594C77.4345 28.6538 79.5562 29.6795 81.182 29.6887C81.0441 30.1792 80.8693 31.3942 80.309 33.3373C78.022 32.7763 75.657 32.604 73.3128 32.8276C73.2793 32.792 73.2358 32.7674 73.1881 32.757C73.1403 32.7466 73.0905 32.7509 73.0453 32.7693C73 32.7877 72.9613 32.8194 72.9344 32.8601C72.9075 32.9009 72.8935 32.9489 72.8943 32.9978C72.9048 33.3855 72.9404 33.7721 73.0009 34.1552C72.0847 33.5893 71.2597 32.8876 70.5541 32.0741C70.505 32.0377 70.445 32.019 70.384 32.021C70.3229 32.0229 70.2643 32.0454 70.2176 32.0848C69.1425 33.0636 67.8668 33.7959 66.4794 34.2306C65.092 34.6653 63.6265 34.7918 62.1851 34.6013C62.1392 34.6014 62.0942 34.6135 62.0544 34.6363C62.0146 34.6592 61.9815 34.692 61.9583 34.7315C61.9351 34.7711 61.9226 34.816 61.922 34.8619C61.9215 34.9077 61.9329 34.9529 61.9551 34.993C62.7968 36.1727 63.876 37.1634 65.1232 37.9013C65.2351 38.2278 65.3353 38.5577 65.4237 38.8909C65.4237 38.8909 64.7921 38.9276 64.5276 38.9391C64.4818 38.9462 64.4387 38.9658 64.4034 38.9959C64.3681 39.026 64.3418 39.0653 64.3276 39.1095C64.3133 39.1536 64.3117 39.2009 64.3228 39.2459C64.3339 39.291 64.3573 39.3321 64.3904 39.3646C67.2319 43.1811 67.8597 46.2465 68.8363 48.9891C68.9061 49.1858 68.9291 49.3961 68.9036 49.6032C68.878 49.8104 68.8046 50.0088 68.6891 50.1826C68.3416 50.862 67.7684 51.3992 67.0679 51.7019C66.7559 51.767 66.2853 51.4719 66.05 51.3408C63.7468 50.259 61.5911 48.8879 59.6349 47.2606C57.7738 45.7385 56.2328 43.8627 55.1008 41.7416C54.4621 40.5904 54.0856 39.3124 53.9983 37.9988C53.911 36.6852 54.115 35.3685 54.5957 34.143C55.2403 33.9839 55.8973 33.8802 56.5595 33.8333C57.6441 34.0358 58.6807 34.4412 59.6149 35.0283C59.6661 35.0584 59.7266 35.0688 59.7849 35.0575C59.8432 35.0461 59.8953 35.0139 59.9316 34.9669C59.9678 34.9198 59.9856 34.8611 59.9817 34.8019C59.9777 34.7426 59.9522 34.6869 59.91 34.645C58.9902 33.3757 57.6212 32.6996 55.8037 32.1983C58.6376 29.3169 63.4859 28.4039 67.5125 28.0674ZM82.7917 37.5494L84.7847 40.565C84.5394 41.2186 84.2809 41.8678 84.009 42.5127C83.342 40.909 82.3972 39.4356 81.2181 38.1603C81.5753 37.0106 81.9309 35.8401 82.2192 34.6673C83.187 35.7244 83.9757 36.9325 84.554 38.2439C84.9373 39.0794 84.8606 39.1323 85.1021 39.6942L85.0147 39.9395L83.2394 37.2566C83.22 37.2272 83.1949 37.2019 83.1658 37.1822C83.1366 37.1625 83.1038 37.1487 83.0692 37.1417C83.0347 37.1346 82.9991 37.1344 82.9646 37.1411C82.93 37.1478 82.897 37.1613 82.8676 37.1807C82.8382 37.2002 82.813 37.2252 82.7932 37.2544C82.7735 37.2836 82.7597 37.3164 82.7527 37.3509C82.7457 37.3854 82.7455 37.421 82.7522 37.4556C82.7589 37.4902 82.7723 37.5231 82.7917 37.5525V37.5494ZM79.9211 44.9993L81.4281 47.7772C80.4497 49.5814 79.3657 51.3262 78.1818 53.0027L76.6802 49.7066C77.0338 49.0387 77.3711 48.3624 77.692 47.6776L78.7031 49.4897C78.7377 49.5519 78.7957 49.5978 78.8642 49.6173C78.9327 49.6367 79.0061 49.6282 79.0683 49.5935C79.1305 49.5589 79.1764 49.5009 79.1959 49.4324C79.2154 49.3639 79.2069 49.2905 79.1722 49.2283C78.1895 47.4699 78.04 47.1648 77.9664 47.082C78.6563 45.5489 79.3999 43.6226 79.918 42.1578L81.3514 44.961C81.3672 44.9929 81.3891 45.0214 81.4159 45.0447C81.4428 45.0681 81.474 45.0858 81.5077 45.097C81.5415 45.1082 81.5772 45.1126 81.6126 45.1098C81.6481 45.1071 81.6827 45.0973 81.7143 45.0811C81.746 45.0649 81.7741 45.0426 81.797 45.0154C81.82 44.9882 81.8373 44.9567 81.848 44.9228C81.8586 44.8889 81.8625 44.8532 81.8592 44.8177C81.8559 44.7823 81.8457 44.7479 81.829 44.7165L80.1618 41.4564C80.2691 41.1416 80.3749 40.8246 80.4791 40.5052L81.7416 42.7281C81.759 42.7588 81.7823 42.7857 81.8101 42.8073C81.8379 42.829 81.8697 42.845 81.9037 42.8543C81.9377 42.8637 81.9732 42.8662 82.0082 42.8619C82.0432 42.8575 82.077 42.8463 82.1076 42.8289C82.1383 42.8115 82.1652 42.7882 82.1869 42.7604C82.2085 42.7326 82.2245 42.7008 82.2338 42.6668C82.2432 42.6328 82.2458 42.5973 82.2414 42.5623C82.237 42.5273 82.2258 42.4935 82.2084 42.4629L80.7053 39.8099C80.7397 39.7003 81.0349 38.7552 81.0349 38.7552C82.1844 40.0616 83.0946 41.5603 83.7239 43.1827C83.1214 44.5563 82.4601 45.9026 81.7401 47.2215L80.3925 44.741C80.3761 44.7093 80.3536 44.6811 80.3262 44.6582C80.2988 44.6353 80.2671 44.6181 80.233 44.6076C80.1989 44.5971 80.163 44.5935 80.1274 44.5971C80.0919 44.6006 80.0574 44.6112 80.0261 44.6283C79.9947 44.6453 79.967 44.6685 79.9447 44.6963C79.9224 44.7242 79.9058 44.7562 79.8961 44.7906C79.8863 44.8249 79.8835 44.8609 79.8878 44.8963C79.8921 44.9318 79.9034 44.966 79.9211 44.997V44.9993ZM72.0734 50.9499C72.1096 50.9095 72.1441 50.8666 72.1768 50.8211C72.2443 50.6818 72.2662 50.5248 72.2394 50.3723C72.2125 50.2199 72.1384 50.0797 72.0274 49.9718C71.8958 49.8808 71.743 49.8251 71.5837 49.8099C71.4244 49.7947 71.2639 49.8207 71.1175 49.8852C70.8784 49.9432 70.6337 49.9748 70.3878 49.9795C70.4847 49.8998 70.565 49.8018 70.6241 49.691C70.6831 49.5803 70.7198 49.459 70.7319 49.3341C70.7066 49.1888 70.6316 49.0567 70.5198 48.9606C70.4079 48.8644 70.2662 48.81 70.1187 48.8067C70.3783 47.9962 70.6236 47.1809 70.8546 46.3607C71.9645 47.0506 72.081 47.1426 72.994 47.7933C73.2498 48.0313 73.5429 48.2258 73.8617 48.369C73.0844 50.4041 73.0783 50.4294 72.4628 51.7647C72.4367 51.8268 72.2788 52.2798 72.2221 52.4094C72.1309 52.3555 72.0451 52.2928 71.966 52.2224C71.953 52.1657 71.9318 52.1112 71.9032 52.0606C72.5371 51.6796 72.4267 51.0933 72.0734 50.9499ZM71.3467 52.4063L71.3375 52.4155C70.8889 52.6126 70.3993 52.6982 69.9105 52.6649C69.4217 52.6317 68.9482 52.4806 68.5305 52.2247C68.32 52.1344 68.1244 52.013 67.9502 51.8644C68.217 51.6698 68.4541 51.4374 68.6539 51.1745C69.0095 50.7923 69.2622 50.326 69.3882 49.8193C69.5736 49.5702 69.8391 49.3926 70.1402 49.3164C70.0995 49.3931 70.2168 49.3839 69.9447 49.6115C69.7671 49.7401 69.6423 49.9289 69.5936 50.1428C69.5847 50.1806 69.5842 50.22 69.5922 50.2581C69.6002 50.2962 69.6165 50.3321 69.6399 50.3632C69.6633 50.3942 69.6933 50.4198 69.7277 50.438C69.7621 50.4562 69.8 50.4666 69.8389 50.4685C70.3434 50.5157 70.8522 50.4708 71.3406 50.3359C71.4839 50.3306 71.7552 50.2593 71.628 50.5168C71.537 50.6779 71.3983 50.8067 71.2309 50.8855C71.1906 50.8888 71.1518 50.9021 71.1179 50.9242C71.0841 50.9462 71.0562 50.9764 71.037 51.012C71.0177 51.0475 71.0076 51.0873 71.0076 51.1277C71.0076 51.1682 71.0177 51.208 71.037 51.2435C71.037 51.58 71.6234 51.4022 71.8143 51.4298C71.6913 51.5808 71.5231 51.6882 71.3344 51.7364C70.9994 51.7517 70.9144 51.9855 71.001 52.1495C71.0738 52.2913 71.2769 52.3343 71.3467 52.4109V52.4063ZM70.1846 43.9185C69.993 43.861 67.2825 43.2984 67.2059 43.2823C66.8962 42.6348 66.561 41.9994 66.2002 41.3759C66.2281 41.0466 66.216 40.7151 66.1642 40.3887C66.749 40.4653 67.3469 40.5236 67.9272 40.5772C69.1966 40.6945 70.1885 40.8118 71.5736 40.985C71.5174 41.2553 71.4604 41.5244 71.4026 41.7922C70.6263 41.6369 69.8423 41.5225 69.054 41.4495C69.0062 41.4456 68.9586 41.4596 68.9207 41.489C68.8828 41.5184 68.8573 41.5609 68.8492 41.6082C68.8411 41.6555 68.8511 41.7041 68.877 41.7444C68.903 41.7847 68.9432 41.8138 68.9896 41.8259C69.2908 41.9026 70.0152 41.9846 71.2953 42.269C70.7833 44.5777 70.1517 46.8252 69.4557 49.1095C69.4219 49.1386 69.3897 49.1677 69.3583 49.1969C69.2675 48.6635 69.0972 48.1467 68.8532 47.6638C68.4776 46.3311 68.0015 45.0289 67.4289 43.7683C67.8222 43.8664 68.2162 43.9553 68.6079 44.0465C69.1072 44.1869 69.6139 44.2998 70.1256 44.3846C70.1831 44.3844 70.2386 44.3633 70.2817 44.3252C70.3249 44.2871 70.3526 44.2346 70.3598 44.1775C70.3671 44.1204 70.3533 44.0626 70.321 44.015C70.2888 43.9673 70.2403 43.933 70.1846 43.9185ZM65.3869 37.3057C66.3367 37.4336 67.2926 37.5104 68.2507 37.5356C68.542 37.5456 70.1118 37.5142 71.1788 37.3954C71.3398 37.3954 72.0419 37.2359 72.2627 37.2152C72.2182 37.6377 72.1465 38.0568 72.0481 38.47C71.9568 38.9936 71.7047 40.348 71.6732 40.5021C70.4023 40.3488 67.3891 39.9908 66.1059 39.954C65.9561 39.0493 65.7152 38.162 65.3869 37.3057ZM65.7778 40.6738C65.5223 40.265 65.2561 39.8597 64.9791 39.4581L65.5532 39.4267C65.6457 39.8375 65.7206 40.2525 65.7778 40.6715V40.6738ZM64.822 37.1071C64.835 37.1378 64.8473 37.1692 64.8595 37.1999C64.4133 36.8667 63.99 36.5038 63.5925 36.1137C63.2805 35.8065 62.9869 35.4812 62.7132 35.1395C64.3502 35.269 65.9944 35.0063 67.5094 34.3729C67.478 34.5967 67.537 34.632 67.6351 34.7876C67.1967 35.164 67.3101 35.5541 67.7402 35.7573C67.9334 35.8284 68.1396 35.8572 68.3449 35.8416C68.5826 35.8362 68.9091 35.8539 69.0302 36.0585C69.1069 36.1842 68.8164 36.2785 68.6585 36.244C68.1572 36.1344 68.069 35.9589 67.9119 36.0608C67.8773 36.0849 67.8504 36.1185 67.8347 36.1576C67.8189 36.1967 67.8148 36.2395 67.8229 36.2808C67.8229 36.4341 68.2062 36.8013 68.7006 36.8013C68.8156 36.7993 68.93 36.7847 69.0417 36.7576C69.0624 36.7729 69.2387 36.9109 69.2602 36.9209C69.1536 36.95 69.0463 36.9768 68.939 37.0029C67.6469 37.025 66.355 36.9468 65.0749 36.7691C65.0334 36.7666 64.9919 36.7744 64.9541 36.7919C64.9163 36.8093 64.8834 36.8358 64.8583 36.8691C64.8333 36.9023 64.8169 36.9412 64.8105 36.9824C64.8042 37.0235 64.8081 37.0656 64.822 37.1048V37.1071ZM77.1899 38.8556C77.1586 38.853 77.1271 38.857 77.0975 38.8675C77.0678 38.878 77.0408 38.8947 77.0181 38.9164C76.9954 38.9382 76.9776 38.9645 76.9658 38.9937C76.9541 39.0228 76.9487 39.0541 76.95 39.0856C76.9519 39.129 76.9678 39.1706 76.9955 39.2041C77.0232 39.2375 77.061 39.2611 77.1033 39.2711C77.7932 39.4658 78.2976 39.6543 78.7606 39.8268C79.2096 39.9296 79.6319 40.1257 80 40.4025C79.9142 40.661 79.8268 40.9191 79.7379 41.1766L78.4141 40.6301C78.3812 40.6146 78.3454 40.606 78.309 40.6048C78.2727 40.6035 78.2364 40.6097 78.2025 40.6228C78.1686 40.636 78.1377 40.6559 78.1116 40.6813C78.0856 40.7067 78.065 40.7372 78.0511 40.7708C78.0372 40.8045 78.0303 40.8406 78.0307 40.877C78.0312 40.9133 78.039 40.9493 78.0537 40.9825C78.0685 41.0158 78.0898 41.0458 78.1164 41.0706C78.143 41.0954 78.1744 41.1145 78.2087 41.1268L79.5616 41.6856C78.6663 44.337 77.5621 46.9133 76.2594 49.39L75.0812 48.8312C75.0494 48.8161 75.0148 48.8074 74.9796 48.8057C74.9444 48.8039 74.9092 48.8091 74.876 48.821C74.8428 48.8328 74.8122 48.8511 74.7861 48.8748C74.76 48.8984 74.7387 48.927 74.7236 48.9588C74.7085 48.9907 74.6999 49.0252 74.6981 49.0604C74.6963 49.0957 74.7015 49.1309 74.7134 49.1641C74.7252 49.1973 74.7435 49.2278 74.7672 49.254C74.7908 49.2801 74.8194 49.3013 74.8513 49.3164L76.0011 49.863C75.3981 50.9678 74.7511 52.0471 74.0602 53.1008C73.7348 52.6876 73.3686 52.3083 72.9671 51.9686C74.1491 49.3624 76.1567 43.858 76.6465 40.4645C76.6838 40.4435 76.7157 40.4141 76.7398 40.3787C76.7639 40.3432 76.7795 40.3027 76.7853 40.2603C76.7912 40.2179 76.7872 40.1747 76.7736 40.134C76.76 40.0934 76.7372 40.0565 76.707 40.0261C75.7626 39.1292 74.7698 38.2847 73.7329 37.4965C73.7329 37.3432 73.7329 37.1846 73.7252 37.0366C76.0799 37.1558 78.3975 37.6728 80.5795 38.5658C80.519 38.7651 80.243 39.6436 80.1656 39.8843C79.2086 39.4472 78.2122 39.102 77.1899 38.8533V38.8556ZM74.5945 43.838C74.1544 43.4738 73.6752 43.1597 73.1657 42.9013C72.7568 42.6495 72.3276 42.4323 71.8825 42.2521C71.9653 41.875 72.0452 41.4973 72.1224 41.1192C72.7055 41.428 73.2727 41.7659 73.8218 42.1317C74.4005 42.5154 74.9548 42.9348 75.4814 43.3873C75.2959 44.0619 74.8313 45.6448 74.4803 46.6788C73.5008 45.8769 72.4469 45.1705 71.3329 44.5693C71.4898 43.952 71.6387 43.3326 71.7798 42.7112C71.907 42.7795 72.035 42.8462 72.163 42.9128C72.9106 43.3043 73.6332 43.7416 74.327 44.2221C74.3776 44.2486 74.4362 44.2557 74.4918 44.2422C74.5473 44.2286 74.5961 44.1953 74.6288 44.1484C74.6616 44.1015 74.6762 44.0443 74.6699 43.9875C74.6636 43.9307 74.6367 43.8781 74.5945 43.8396V43.838ZM74.3377 47.0843C74.2311 47.3871 74.1192 47.6891 74.005 47.9903C73.054 47.221 72.0375 46.5361 70.9673 45.9437C71.0516 45.6371 71.1338 45.3305 71.2141 45.0239C74.0847 46.8106 73.6585 46.6382 74.3377 47.0858V47.0843ZM76.2364 40.3135C75.9903 41.1567 75.837 41.9907 75.6278 42.8339C74.5783 41.9796 73.4322 41.2515 72.2129 40.6646C72.3059 40.1934 72.394 39.7218 72.4773 39.2496C73.6187 39.8069 75.3441 40.9268 75.3618 40.936C75.3913 40.9552 75.4244 40.9684 75.459 40.9749C75.4937 40.9813 75.5292 40.9809 75.5637 40.9736C75.5982 40.9663 75.6309 40.9523 75.66 40.9323C75.6891 40.9124 75.7139 40.8869 75.7332 40.8574C75.7524 40.8278 75.7656 40.7948 75.7721 40.7601C75.7785 40.7255 75.7781 40.6899 75.7708 40.6554C75.7635 40.6209 75.7495 40.5882 75.7295 40.5592C75.7096 40.5301 75.6841 40.5052 75.6546 40.486C74.6595 39.8355 73.6307 39.2383 72.5724 38.6969C72.6419 38.2799 72.7083 37.8632 72.7717 37.4467C73.9936 38.3188 75.1515 39.2774 76.2364 40.3151V40.3135ZM72.8437 36.894C72.8384 36.8596 72.8262 36.8266 72.8076 36.797C72.7891 36.7675 72.7647 36.7421 72.736 36.7223C72.7073 36.7026 72.6748 36.6889 72.6406 36.6822C72.6064 36.6755 72.5712 36.6758 72.5371 36.6832C71.998 36.7706 71.4573 36.8406 70.9151 36.8933C71.7029 36.5777 72.4506 36.1702 73.1427 35.6791C73.1833 36.1589 73.2193 36.638 73.2592 37.1631C73.1235 37.0757 72.9848 36.9822 72.8437 36.8956V36.894ZM72.7333 35.3204C71.7992 35.9793 70.7634 36.4809 69.6672 36.8051C69.6719 36.7895 69.6742 36.7732 69.6741 36.7568C69.6741 36.6035 69.6741 36.5905 69.4541 36.441C69.7324 35.9888 69.4265 35.5702 68.9497 35.4169C68.6799 35.3303 68.0652 35.4169 67.8766 35.2636C67.9443 35.1826 68.0215 35.1101 68.1066 35.0475C68.1291 35.0706 68.1569 35.0878 68.1877 35.0975C68.2185 35.1073 68.2511 35.1093 68.2829 35.1034H68.2967C68.4607 35.1395 68.591 34.9501 68.5588 34.7815C68.5441 34.7177 68.5131 34.6588 68.4687 34.6107C68.4244 34.5626 68.3682 34.5269 68.3059 34.5071C68.2276 34.4907 68.1462 34.4979 68.0721 34.5278C68.0606 34.5086 68.0276 34.4603 68.0146 34.4419C67.9819 34.3509 67.9155 34.276 67.8291 34.2326C68.7346 33.819 69.5795 33.2836 70.3402 32.6413C71.1359 33.482 72.0476 34.2047 73.0476 34.7876C73.0591 34.8758 73.0706 34.9616 73.0821 35.0597C72.9633 35.1425 72.846 35.236 72.7333 35.3204ZM72.7579 52.4324C73.7061 53.4289 73.9981 53.7738 73.9981 53.7738C73.9981 53.7738 74.7984 55.2532 74.9777 55.6304C74.0646 54.832 73.1963 53.9837 72.3769 53.0893C72.4934 53.0356 72.5034 52.9728 72.7556 52.4324H72.7579ZM74.3775 53.5952C75.0838 52.5221 75.7455 51.4234 76.3629 50.2991L77.8116 53.4779C77.1406 54.309 76.4105 55.0906 75.627 55.8166C75.5833 55.7392 74.5378 53.8627 74.3752 53.5952H74.3775ZM81.0379 37.0029C80.1457 36.6127 78.0968 35.9612 77.4674 35.7864C77.417 35.7753 77.3642 35.7837 77.3197 35.8097C77.2751 35.8358 77.242 35.8777 77.2269 35.9271C77.2118 35.9765 77.2159 36.0297 77.2383 36.0762C77.2607 36.1228 77.2998 36.1591 77.3479 36.1781C79.7709 36.9753 79.6214 37.0343 80.8961 37.4981C80.8425 37.6828 80.7888 37.8683 80.7344 38.053C78.5235 37.0715 76.1311 36.5654 73.7122 36.5675C73.7076 36.4747 73.6087 34.9409 73.601 34.8482C75.3704 34.739 77.1465 34.8598 78.8847 35.2077C78.9435 35.209 79.0005 35.1879 79.0441 35.1485C79.0877 35.1092 79.1146 35.0547 79.1193 34.9961C79.1245 34.9425 79.1091 34.8889 79.0762 34.8462C79.0433 34.8035 78.9954 34.7749 78.9422 34.7662C78.0021 34.471 77.0216 34.3248 76.0363 34.3331C75.2076 34.279 74.3756 34.299 73.5505 34.3929C73.483 33.841 73.5137 33.7896 73.4378 33.3059C76.2757 33.0961 79.1274 33.4344 81.8374 34.3024C81.5753 35.1195 81.2962 36.0854 81.0356 37.0029H81.0379ZM55.1721 33.289C55.2535 33.1976 55.304 33.0829 55.3167 32.9612C55.3293 32.8395 55.3034 32.7169 55.2426 32.6107C55.9203 32.7847 56.5846 33.0074 57.2303 33.2768C56.3588 33.2855 55.4911 33.3917 54.6432 33.5934C54.6463 33.5793 54.6478 33.5649 54.6478 33.5504V33.5313C54.8477 33.5227 55.0361 33.4357 55.1721 33.289ZM49.3932 35.9374C50.1521 33.4799 51.7273 32.1814 54.3067 32.4474C54.4596 32.5796 54.6212 32.7015 54.7904 32.8123C54.8977 32.8935 54.762 33.0208 54.6432 33.0185C54.3857 32.9916 54.3765 32.9035 54.0706 32.7954C54.0207 32.7806 53.9673 32.7818 53.9181 32.7988C53.8689 32.8159 53.8263 32.8479 53.7962 32.8905C53.7744 32.9304 53.7636 32.9755 53.7649 33.021C53.7663 33.0666 53.7797 33.1109 53.8039 33.1495C53.921 33.2998 54.0816 33.4103 54.2638 33.4661C54.2699 33.552 54.24 33.601 54.299 33.6792C52.5537 34.1653 50.8975 34.9276 49.3932 35.9374ZM52.5567 55.8787C50.6189 56.0558 51.1156 55.9722 50.6404 56.0236C50.4847 56.0534 50.3247 56.0534 50.169 56.0236C50.057 55.8268 49.9792 55.6125 49.939 55.3897C49.5834 54.2355 49.3017 53.0598 49.0958 51.8697C48.6779 49.5498 48.6613 47.1754 49.0468 44.8499C49.1948 43.7353 49.6992 42.6985 50.4848 41.8941C51.4123 41.0509 52.7606 40.7911 53.9503 40.4684C55.6957 45.3581 60.7517 49.4414 65.4482 51.7479C61.4556 53.9384 57.0789 55.3408 52.5567 55.8787ZM80.3312 59.0675C78.8351 59.0479 77.3452 58.873 75.8853 58.5455C72.0093 57.5173 68.5573 55.2905 66.0224 52.1833C65.9997 52.1231 65.9805 52.0617 65.9649 51.9993C66.2371 52.1839 66.556 52.2876 66.8847 52.2982C67.0902 52.3019 67.2936 52.2556 67.4772 52.1633C67.804 52.4726 68.1906 52.7118 68.6132 52.8662C69.4372 53.2717 70.3882 53.3348 71.2585 53.0418C71.3768 53.0058 71.4921 52.9607 71.6035 52.9069C72.6923 54.1699 73.8707 55.3529 75.1295 56.4467C75.1391 56.4886 75.1591 56.5274 75.1875 56.5596C75.216 56.5918 75.252 56.6164 75.2924 56.6311C75.3328 56.6458 75.3762 56.6502 75.4187 56.6438C75.4612 56.6375 75.5015 56.6205 75.5358 56.5946C78.1083 54.6484 79.7992 51.6965 81.2924 49.0903C82.0099 47.7987 83.5682 44.9664 84.2765 43.4095C84.8043 42.2548 85.2266 41.0546 85.5382 39.8237C85.5778 39.7782 85.5978 39.7191 85.5942 39.6589C85.4954 39.1433 85.3229 38.6445 85.0821 38.178C84.4657 36.6587 83.5314 35.2889 82.3418 34.1606C82.3809 33.9866 82.1624 33.8501 82.0582 33.8241C81.6739 33.6999 81.2858 33.5857 80.8938 33.4814C81.2663 32.2337 81.5264 30.9552 81.6711 29.6611C81.9389 29.6204 82.1948 29.5226 82.4215 29.3744C82.5271 29.6003 82.658 29.8135 82.8117 30.0098C82.6839 30.112 82.559 30.2181 82.4368 30.3279C82.2292 30.5224 82.0934 30.7814 82.0517 31.0628C82.0099 31.3442 82.0646 31.6315 82.2069 31.8779C82.432 32.125 82.7305 32.2932 83.0585 32.3577C83.2574 32.44 83.4742 32.4696 83.6878 32.4435C83.9015 32.4174 84.1048 32.3367 84.2781 32.209C84.2869 32.2021 84.2934 32.1926 84.2967 32.1819C84.3 32.1711 84.2998 32.1596 84.2963 32.149C84.2928 32.1383 84.286 32.129 84.277 32.1223C84.268 32.1156 84.2571 32.1119 84.2459 32.1117C84.0298 32.1139 83.8168 32.0606 83.6273 31.9568C83.4377 31.8531 83.278 31.7024 83.1635 31.5191C83.1182 31.3581 83.1155 31.188 83.1558 31.0257C83.1962 30.8633 83.2781 30.7143 83.3935 30.5932C84.4281 31.2728 85.6282 31.658 86.8651 31.7077C87.3863 31.7212 87.906 31.7709 88.4204 31.8564C88.4204 31.8564 88.7124 32.3569 88.7408 32.393C88.5798 32.5035 88.4262 32.6243 88.2809 32.7548C88.1816 32.8806 88.1151 33.0291 88.0875 33.1869C88.0598 33.3448 88.0719 33.507 88.1225 33.659C88.1731 33.8111 88.2608 33.9482 88.3775 34.0579C88.4943 34.1677 88.6365 34.2467 88.7914 34.2878C89.876 41.7232 88.6067 49.7035 85.0132 58.0556C83.6407 58.9825 81.9639 59.3449 80.3312 59.0675ZM125.25 23.9473C118.524 30.8254 109.434 34.9662 100.882 39.1101C98.5717 40.2952 96.1357 41.2172 93.6198 41.8589C93.7152 40.0979 93.6526 38.3319 93.4327 36.5821C93.4328 36.5305 93.4182 36.48 93.3906 36.4364C93.363 36.3929 93.3236 36.3581 93.2769 36.3361C93.2303 36.3142 93.1784 36.306 93.1272 36.3125C93.0761 36.319 93.0278 36.3399 92.9881 36.3728C92.9422 36.4037 92.9058 36.4469 92.8832 36.4974C92.8606 36.548 92.8526 36.6039 92.8601 36.6587C93.8137 43.6127 91.5202 51.0971 89.2682 58.3232C88.6163 60.4915 87.5718 62.5217 86.1867 64.3128C84.854 66.0065 82.9374 67.1422 80.8118 67.4978C86.9279 57.073 91.4949 45.2055 89.0988 33.4539C89.0916 33.4202 89.0756 33.389 89.0525 33.3635C89.0293 33.3381 88.9998 33.3193 88.9669 33.309C88.9338 33.2911 88.8963 33.2829 88.8587 33.2852C88.8211 33.2875 88.7849 33.3002 88.7542 33.3219C88.7234 33.3437 88.6993 33.3736 88.6847 33.4083C88.67 33.4429 88.6653 33.481 88.671 33.5182C88.4587 33.0989 88.8949 32.9748 89.1432 32.7333C89.4197 32.8627 89.7234 32.9233 90.0284 32.9099C90.3334 32.8966 90.6306 32.8097 90.8947 32.6567C90.9049 32.6506 90.9128 32.6414 90.9173 32.6305C90.9218 32.6195 90.9225 32.6074 90.9195 32.5959C90.9165 32.5845 90.9098 32.5744 90.9005 32.5671C90.8912 32.5598 90.8797 32.5557 90.8679 32.5555C90.7098 32.5438 90.5599 32.4804 90.4413 32.3751C90.3228 32.2699 90.2421 32.1285 90.2118 31.9729C110.767 27.5194 124.227 21.6807 124.69 21.729C125.162 22.1894 125.512 22.7589 125.711 23.387C125.688 23.5733 125.405 23.7848 125.248 23.9473H125.25ZM127.845 21.4546C127.56 22.1254 127.025 22.6586 126.353 22.9409C126.29 22.9708 126.227 23.0007 126.165 23.0321C125.912 22.4316 125.585 21.8651 125.191 21.3457C125.255 20.976 125.348 20.6118 125.468 20.2565C125.55 20.0794 125.681 19.9298 125.846 19.8257C126.011 19.7217 126.202 19.6677 126.397 19.6703C126.592 19.6729 126.782 19.732 126.944 19.8404C127.106 19.9488 127.233 20.1018 127.31 20.281C127.343 20.3372 127.366 20.3987 127.377 20.4627C127.285 20.516 127.179 20.5428 127.073 20.5401C126.966 20.5374 126.862 20.5053 126.773 20.4474C126.726 20.423 126.673 20.4123 126.621 20.4165C126.568 20.4206 126.517 20.4395 126.475 20.4708C126.432 20.5022 126.4 20.5448 126.38 20.5939C126.36 20.643 126.355 20.6966 126.364 20.7486C126.4 20.9203 126.396 21.0977 126.354 21.2677C126.312 21.4378 126.232 21.5962 126.12 21.7313C126.083 21.7906 126.07 21.8614 126.082 21.9301C126.094 21.9988 126.132 22.0604 126.187 22.1031C126.242 22.1458 126.311 22.1665 126.381 22.1613C126.45 22.1561 126.516 22.1252 126.564 22.0747C126.801 21.7975 126.938 21.4487 126.952 21.0843C127.095 21.1006 127.24 21.0876 127.378 21.046C127.515 21.0045 127.643 20.9354 127.753 20.8429C127.833 20.7974 127.892 20.7231 127.919 20.6352C127.989 20.6283 128.058 20.6229 128.129 20.6183C128.07 20.9076 127.975 21.1884 127.847 21.4546H127.845Z" fill="#F9C784"/>
</svg>
