<svg width="82" height="104" viewBox="0 0 82 104" fill="none" xmlns="http://www.w3.org/2000/svg">
<path d="M81.2735 1.44484C81.2927 1.38726 81.2979 1.32594 81.2887 1.26594C81.2796 1.20593 81.2563 1.14896 81.2208 1.09971C81.1854 1.05046 81.1387 1.01035 81.0847 0.98266C81.0307 0.954974 80.9708 0.940511 80.9101 0.940465C80.8247 0.933204 80.7394 0.954782 80.6677 1.00175C80.596 1.04871 80.5421 1.11836 80.5146 1.19955C65.972 43.6929 39.9866 81.1817 0.348542 103.028C0.257351 103.09 0.192697 103.184 0.167337 103.291C0.141976 103.398 0.157751 103.511 0.211549 103.607C0.265346 103.704 0.35326 103.776 0.457944 103.811C0.562627 103.845 0.676481 103.84 0.777037 103.794C39.7107 82.8036 67.0635 44.0754 81.2735 1.44484Z" fill="#F9C784"/>
</svg>
