<svg width="7" height="5" viewBox="0 0 7 5" fill="none" xmlns="http://www.w3.org/2000/svg">
<path d="M1.70631 2.20402C1.82743 2.6854 2.17467 3.15988 2.55716 2.80728C2.84461 2.54283 2.59703 1.74333 2.33947 1.5425C2.08192 1.34167 1.48325 1.31638 1.70631 2.20402Z" fill="#F9C784"/>
<path d="M5.12198 1.1708C5.26916 1.70738 5.70608 1.74187 5.88851 1.50118C6.11081 1.20224 5.87625 0.598207 5.68308 0.382045C5.41097 0.0823318 4.88512 0.305392 5.12198 1.1708Z" fill="#F9C784"/>
<path d="M4.7427 1.99877C5.27391 2.77297 5.43258 3.14473 5.64874 3.4866C5.41642 3.53691 5.18853 3.60586 4.96729 3.6928C4.91231 3.7127 4.86579 3.75082 4.83548 3.80083C4.80517 3.85083 4.79289 3.90971 4.80069 3.96766C4.80848 4.02562 4.83587 4.07916 4.87831 4.11938C4.92076 4.1596 4.9757 4.18408 5.03399 4.18875C5.42043 4.14561 5.79425 4.02518 6.13319 3.83461C6.38768 3.55483 5.99445 3.04125 5.86414 2.82432C5.48253 2.15324 5.023 1.52956 4.49511 0.966252C4.46006 0.938241 4.4163 0.923415 4.37144 0.924359C4.32659 0.925303 4.28348 0.941958 4.24964 0.971419C4.2158 1.00088 4.19337 1.04128 4.18626 1.08558C4.17915 1.12988 4.18781 1.17527 4.21073 1.21384C4.37247 1.48571 4.55011 1.74781 4.7427 1.99877Z" fill="#F9C784"/>
<path d="M0.963632 1.60006C0.972654 1.64354 0.996436 1.68255 1.03094 1.7105C1.06545 1.73844 1.10856 1.75358 1.15297 1.75337H1.22962C1.2614 1.75342 1.29269 1.74557 1.32068 1.73053C1.34867 1.71548 1.37248 1.69372 1.38996 1.66718C1.40745 1.64065 1.41807 1.61019 1.42085 1.57853C1.42364 1.54688 1.41851 1.51503 1.40592 1.48585C1.40572 1.28031 1.47565 1.08085 1.60415 0.920432C1.73265 0.760014 1.91203 0.648237 2.11266 0.603569C2.50129 0.603569 2.61704 0.366711 2.50589 0.188876C2.495 0.161783 2.47825 0.137439 2.45684 0.11759C2.2471 0.0594377 2.02495 0.0637042 1.8176 0.129871C1.61025 0.196038 1.4267 0.321233 1.28941 0.490124C1.15241 0.636977 1.05162 0.813801 0.99506 1.0065C0.9385 1.19921 0.927736 1.40246 0.963632 1.60006Z" fill="#F9C784"/>
</svg>
