<svg width="13" height="9" viewBox="0 0 13 9" fill="none" xmlns="http://www.w3.org/2000/svg">
<path d="M0.201229 8.03895C0.20638 8.09062 0.226082 8.13976 0.258047 8.18067C0.290011 8.22159 0.332927 8.25259 0.381808 8.27009C0.43069 8.28759 0.483533 8.29086 0.5342 8.27952C0.584867 8.26819 0.63128 8.24271 0.668047 8.20606C2.18032 6.51599 4.04383 5.17702 6.12804 4.28295C7.1302 3.86522 8.21447 3.68171 9.29827 3.7464C10.3821 3.81109 11.4368 4.12228 12.3822 4.65626C12.4325 4.68201 12.4894 4.69238 12.5456 4.68607C12.6018 4.67976 12.6549 4.65705 12.6983 4.62076C12.7417 4.58448 12.7734 4.53622 12.7896 4.48202C12.8058 4.42781 12.8056 4.37004 12.7892 4.31592C12.3152 3.00281 11.6901 1.74929 10.9265 0.580611C10.9025 0.550814 10.8728 0.526115 10.8392 0.507971C10.8055 0.489827 10.7686 0.478604 10.7305 0.474961C10.6924 0.471318 10.654 0.475329 10.6175 0.48676C10.581 0.49819 10.5472 0.51681 10.518 0.541519C8.12333 -0.207941 5.53197 -0.00560724 3.28268 1.10645C2.14284 1.58286 1.23052 2.48035 0.735501 3.61224C0.234713 5.03072 0.0523066 6.54205 0.201229 8.03895ZM10.5402 1.00604C11.0981 1.91242 11.5851 2.86064 11.9966 3.8422C10.3364 3.09858 8.46539 2.97139 6.7198 3.48346C6.74857 3.44907 6.76431 3.40565 6.76426 3.36082C6.76426 3.16765 6.7221 3.20751 6.63165 2.99365C6.76632 2.95297 6.89129 2.8853 6.99895 2.79477C7.10662 2.70423 7.19473 2.59273 7.25791 2.46704C7.4825 1.91361 6.85088 1.3939 6.18093 1.31265C6.0287 1.30612 5.87708 1.28922 5.72715 1.26206C5.68951 1.24986 5.65805 1.22359 5.63933 1.18873C5.62062 1.15388 5.6161 1.11313 5.62673 1.07502C5.73766 0.911699 5.90185 0.791946 6.09125 0.736216C6.10941 0.730326 6.1265 0.721524 6.14184 0.710154C7.61139 0.473179 9.11562 0.574371 10.5402 1.00604ZM5.19824 0.915585C5.05337 1.31111 5.25113 1.68212 5.7969 1.76567C6.10079 1.74677 6.40151 1.83641 6.64545 2.01862C6.70141 2.06768 6.82865 2.19109 6.79876 2.26085C6.61709 2.61422 5.98624 2.57359 5.63056 2.29074C5.59991 2.27152 5.56546 2.25914 5.52958 2.25445C5.49371 2.24976 5.45724 2.25287 5.42267 2.26357C5.3881 2.27426 5.35625 2.2923 5.32929 2.31643C5.30233 2.34057 5.2809 2.37024 5.26646 2.40342C5.25542 2.4422 5.25312 2.48294 5.25975 2.52271C5.26638 2.56248 5.28176 2.60028 5.30479 2.63338C5.41411 2.75676 5.54744 2.85656 5.69663 2.92667C5.84582 2.99679 6.00775 3.03575 6.1725 3.04117C6.19553 3.15157 6.23754 3.25713 6.29668 3.35315C6.31809 3.3984 6.34851 3.43879 6.38607 3.47188C6.42364 3.50496 6.46756 3.53003 6.51514 3.54555C4.29952 4.35901 2.29943 5.66871 0.668047 7.37437C0.63318 6.26616 0.771281 5.15929 1.07737 4.09362C1.29885 3.50689 1.63866 2.97199 2.07567 2.52219C2.51268 2.07239 3.03756 1.71729 3.61766 1.47899C4.13007 1.25287 4.65834 1.06457 5.19824 0.915585Z" fill="#F9C784"/>
</svg>
