<svg width="15" height="7" viewBox="0 0 15 7" fill="none" xmlns="http://www.w3.org/2000/svg">
<path d="M4.01292 6.20088C6.58923 6.97661 9.7619 6.67537 11.8706 4.77437C12.9779 3.75039 13.9101 2.55204 14.6301 1.22687C14.7635 1.04827 14.6623 0.745484 14.3197 0.804507C12.5679 1.09646 10.7823 1.12437 9.02219 0.887293C8.97745 0.886311 8.93316 0.896409 8.89327 0.916689C8.85338 0.936969 8.81912 0.9668 8.79355 1.00353C8.76798 1.04025 8.75189 1.08273 8.74671 1.12718C8.74153 1.17163 8.74743 1.21667 8.76387 1.25829C7.90307 2.48179 6.65733 3.38178 5.22536 3.81469C3.79339 4.2476 2.2577 4.1885 0.863242 3.6468C0.809712 3.63634 0.754279 3.64212 0.704055 3.66338C0.653831 3.68465 0.611108 3.72045 0.581369 3.76617C0.55163 3.81189 0.536229 3.86545 0.537148 3.91998C0.538067 3.97452 0.555262 4.02753 0.586524 4.07223C1.45393 5.15013 2.66228 5.90082 4.01292 6.20088ZM13.8245 1.41083C13.0616 2.68531 12.0749 3.81153 10.9117 4.73528C10.9268 4.70161 10.9342 4.66499 10.9334 4.6281C10.9325 4.5912 10.9235 4.55496 10.9069 4.52199C10.8903 4.48903 10.8666 4.46018 10.8375 4.43754C10.8083 4.4149 10.7745 4.39904 10.7385 4.3911C10.6573 4.34404 10.5702 4.3082 10.4794 4.28456C10.4874 4.14869 10.4644 4.01277 10.4121 3.88713C10.3597 3.76149 10.2795 3.64941 10.1774 3.55942C9.96396 3.40524 9.70133 3.33489 9.43943 3.36174C9.17753 3.38859 8.93465 3.51078 8.75697 3.70506C8.4105 3.99251 8.09929 4.45779 7.7007 4.31215C7.49757 4.24316 7.51979 4.15885 7.53282 4.10825C7.5727 4.00872 7.6326 3.91844 7.70882 3.84301C7.78503 3.76759 7.87593 3.70863 7.97588 3.6698C7.98958 3.69217 8.00775 3.71147 8.02925 3.72651C8.05074 3.74154 8.07511 3.75199 8.10083 3.75718C8.18284 3.77635 8.2296 3.73879 8.30779 3.68053C8.51475 3.53336 8.28939 3.21218 8.00731 3.19148C7.7625 3.2113 7.53281 3.31785 7.35959 3.49196C7.30593 3.49934 7.25151 3.49934 7.19785 3.49196H7.11277C7.92905 2.96438 8.62678 2.27291 9.1617 1.46143C10.7098 1.65087 12.2762 1.63412 13.8199 1.4116L13.8245 1.41083ZM6.83681 3.8691C6.86141 3.90142 6.8945 3.92629 6.9324 3.9409C6.9703 3.95552 7.01151 3.95932 7.05145 3.95188C7.00862 4.12797 7.03679 4.31383 7.12987 4.46931C7.22296 4.62479 7.37349 4.7374 7.54892 4.7828C8.16215 4.9959 8.68569 4.46163 8.86429 4.27689C9.02329 4.08791 9.22923 3.94409 9.46142 3.8599C9.55214 3.82893 9.65106 3.83217 9.73957 3.86901C9.82808 3.90585 9.90008 3.97376 9.94203 4.05996C9.9801 4.14999 9.98234 4.25116 9.94828 4.34277C9.91423 4.43439 9.84646 4.50954 9.75883 4.55284C9.52559 4.62968 9.28156 4.66876 9.03599 4.66859C8.96738 4.66184 8.89884 4.68208 8.8449 4.725C8.79095 4.76793 8.75584 4.83017 8.74701 4.89855C8.74259 4.95487 8.75905 5.01085 8.79327 5.05581C8.82748 5.10076 8.87705 5.13155 8.93251 5.1423C9.17601 5.21317 9.43453 5.21408 9.67852 5.14495C9.92251 5.07582 10.1421 4.93943 10.3123 4.75137C10.52 4.8127 10.5422 4.89471 10.6771 4.89625C9.96606 5.38077 9.16595 5.71946 8.32312 5.89274C7.035 6.14036 5.70788 6.09768 4.43834 5.76779C3.43527 5.58574 2.50022 5.13543 1.73249 4.46469C3.45687 4.8453 5.26125 4.56781 6.79159 3.68666C6.78169 3.75066 6.79619 3.81605 6.83221 3.86986L6.83681 3.8691Z" fill="#F9C784"/>
</svg>
