<svg width="92" height="127" viewBox="0 0 92 127" fill="none" xmlns="http://www.w3.org/2000/svg">
<path d="M15.1662 99.199C16.4439 98.7465 17.7531 98.3878 19.0831 98.1259L19.2441 98.7161C19.2621 98.7857 19.3045 98.8464 19.3637 98.8872C19.4228 98.9281 19.4946 98.9462 19.566 98.9384L24.8321 98.3252C26.2808 95.0214 28.9407 90.016 28.979 89.9393C28.9407 88.6899 28.979 87.6398 28.979 86.444C25.9666 87.5631 20.3939 89.6864 17.4811 91.0432C17.4152 91.0856 17.3643 91.1476 17.3354 91.2205C17.3066 91.2933 17.3012 91.3734 17.3201 91.4494C17.3201 91.4494 17.3738 91.641 17.4427 91.917C16.017 91.917 11.7474 91.71 10.7203 92.6835C10.5606 92.906 10.4821 93.1766 10.498 93.4501C10.4367 94.5079 10.9656 102.725 11.8087 105.14C12.2457 106.404 13.1655 106.266 13.7941 105.055C14.5216 103.231 14.9886 101.314 15.1815 99.36C15.1815 99.2604 15.1585 99.268 15.1662 99.199ZM14.2846 92.3386C15.2198 92.2619 15.5111 92.2773 17.5194 92.2159C17.8797 93.5804 18.6232 96.3859 19.0065 97.8193C17.6541 98.0288 16.3192 98.3388 15.0128 98.7468C14.6058 96.6326 14.3623 94.4902 14.2846 92.3386Z" fill="#F9C784"/>
<path d="M85.7174 25.2517C85.9091 24.9834 85.6638 24.6385 85.4568 24.3702C86.043 23.7672 86.6933 23.23 87.3961 22.7682C88.5821 22.1771 89.6663 21.4009 90.6079 20.4686C90.9988 20.0623 91.7347 19.2268 91.4587 18.7362C91.1828 18.2456 90.6922 18.215 90.0253 18.4986C90.3143 18.1952 90.5501 17.8454 90.7229 17.4638C90.9375 16.8659 90.4316 16.383 89.3354 16.8276C89.734 16.1913 89.826 15.5245 89.1515 15.2025C88.6072 14.9419 87.8101 15.5628 87.3501 15.969C86.447 16.7581 85.5993 17.6084 84.8129 18.5139C84.33 17.5021 83.5635 16.337 82.6053 16.7049C81.6472 17.0728 82.3907 18.7209 82.8813 19.6177L81.1412 20.8212C80.8783 20.6792 80.5811 20.6129 80.2827 20.6296C78.3051 20.9668 69.2217 27.8809 68.3018 27.8809C67.5966 27.8809 57.5244 23.0518 48.8166 21.6567C48.7998 21.6045 48.7686 21.5581 48.7266 21.5228C48.6845 21.4875 48.6334 21.4649 48.579 21.4574C47.0602 21.1982 45.5203 21.0827 43.9798 21.1125C43.9331 21.1156 43.8877 21.1289 43.8466 21.1514C43.8056 21.1739 43.77 21.2051 43.7422 21.2428H43.0983C42.945 20.6219 42.3778 19.1885 42.1785 18.6366C42.6997 18.1843 43.4203 17.9544 43.7959 17.2262C44.4857 15.8771 44.4551 13.5315 44.2635 12.0291C45.1296 11.3699 45.1526 10.312 44.9533 9.23124C44.8767 8.79432 44.6391 7.80549 44.2711 7.5602C44.0642 7.42223 43.6272 7.5602 43.2516 7.69818C42.876 6.82434 42.876 7.22293 43.0293 6.87033C43.1005 6.70782 43.1421 6.53389 43.152 6.35675C43.5582 6.4794 44.4014 5.66687 44.1101 4.59373C43.9575 4.20957 43.7702 3.84011 43.5506 3.48993C43.6579 3.22931 43.8879 2.91503 43.1673 1.95687C42.857 1.62213 42.4541 1.38731 42.0099 1.28232H41.6572C41.403 0.913057 41.0295 0.642425 40.5994 0.51579C39.9502 0.35025 39.2619 0.446609 38.6831 0.784074C38.5298 0.899054 38.4072 1.05236 38.2539 1.15968C37.9073 0.949214 37.5095 0.837918 37.1041 0.837918C36.6986 0.837918 36.3009 0.949214 35.9543 1.15968C35.7514 1.23929 35.5666 1.3591 35.4112 1.5119C35.2558 1.6647 35.1328 1.84734 35.0498 2.04885C34.6742 1.91926 34.2757 1.86938 33.8798 1.90237C33.4838 1.93537 33.0991 2.05052 32.7502 2.24048C31.426 2.95853 30.4355 4.16639 29.9907 5.60555C29.9783 5.82256 29.9783 6.0401 29.9907 6.2571H29.9063C28.7565 6.08847 27.2925 8.81731 28.4653 10.9406C28.6032 11.1936 28.7795 11.4312 28.9482 11.7071C29.4388 12.4737 29.2471 12.7036 30.3433 13.6388C30.6652 13.9147 30.7189 13.8917 30.9182 14.0604C31.1175 14.229 31.0408 14.1447 31.1558 14.574C31.2185 14.8268 31.3307 15.0648 31.4859 15.274C31.6412 15.4832 31.8364 15.6595 32.0603 15.7927C32.1417 16.5425 32.4614 17.2464 32.9725 17.8011C33.1343 17.9821 33.323 18.1373 33.532 18.261C33.5884 18.2927 33.6514 18.3111 33.716 18.3146C33.946 19.7404 34.2296 21.5954 34.3522 22.3849L33.67 22.7528C32.7774 23.112 31.9094 23.5294 31.0715 24.0023C31.0057 24.0478 30.9593 24.1161 30.9412 24.1939C30.1286 24.6232 29.3621 25.0294 28.9252 25.2901C22.8389 28.9004 5.55366 52.7012 5.37736 53.7897C5.3579 53.8521 5.3579 53.9189 5.37736 53.9813C5.62511 54.3766 5.92699 54.7352 6.2742 55.0468C6.16721 55.242 6.03865 55.4245 5.89093 55.591C4.35787 56.5952 2.05828 58.0899 0.824166 59.4237C0.73761 59.5008 0.672673 59.5992 0.635761 59.7092C0.59885 59.8191 0.591241 59.9367 0.613685 60.0505C0.636128 60.1643 0.687848 60.2702 0.763743 60.3579C0.839637 60.4456 0.93708 60.512 1.04646 60.5505C1.27642 60.6271 1.31475 60.6041 2.80948 59.7839C2.39868 60.1443 2.0627 60.5818 1.82065 61.0717C1.72101 61.4933 2.10427 61.7386 2.58719 61.6619C2.8589 61.5907 3.11762 61.4769 3.35372 61.3247C3.21546 61.5381 3.1419 61.787 3.1419 62.0414C3.1419 62.2957 3.21546 62.5446 3.35372 62.7581C4.12025 63.7239 6.12856 60.6808 7.18637 59.9296C7.61563 60.4738 8.19819 61.7463 9.12569 61.409C9.93055 61.11 9.04904 59.3393 9.12569 58.8258C9.43759 58.5263 9.77061 58.2496 10.1222 57.9979C10.7135 58.4364 11.3896 58.7471 12.1075 58.9101C13.3723 58.9101 26.5719 45.5878 27.5761 44.5223C27.2158 47.9104 25.3991 62.4515 25.7824 65.28C25.9587 66.5601 29.0325 66.744 30.3279 66.813C29.937 76.0114 29.6764 89.9469 29.6074 90.0926C27.5761 94.4694 27.0242 95.6652 26.342 96.9913C25.1002 99.3676 19.8724 108.137 19.2822 110.13C19.1979 110.444 19.1902 110.567 19.5198 111.149C18.5321 112.188 17.6153 113.291 16.7757 114.453C16.3541 115.219 18.1631 122.363 19.4432 124.893C19.7345 125.46 20.2097 126.334 20.8459 126.311C22.7623 126.242 22.7546 119.359 22.7009 117.435C22.7006 117.375 22.6789 117.318 22.6396 117.274C22.987 116.755 23.3659 116.259 23.7741 115.787C24.0178 115.954 24.274 116.103 24.5406 116.231C24.8012 116.346 25.0925 116.147 25.3072 115.971C27.8597 113.962 41.6266 96.8074 44.5777 88.7128C45.9192 85.0181 47.7052 79.913 48.2111 76.295C48.5204 74.0074 48.5487 71.6907 48.2954 69.3962C48.2954 69.3637 48.3083 69.3325 48.3313 69.3095C48.3543 69.2865 48.3855 69.2736 48.418 69.2736C48.4506 69.2736 48.4818 69.2865 48.5048 69.3095C48.5278 69.3325 48.5407 69.3637 48.5407 69.3962C48.9246 71.7037 48.9993 74.0521 48.763 76.3793C48.1958 81.4001 44.2328 91.8632 42.1172 95.7112C43.9415 95.3739 47.6515 94.6381 49.4452 94.1015C55.4241 92.2848 60.9432 86.8655 61.4261 80.7792C61.5823 77.912 61.5823 75.0383 61.4261 72.1711C61.3743 68.2128 60.8598 64.2742 59.893 60.4355C61.5181 59.554 63.0051 58.5192 63.488 57.5687C64.5229 55.5374 61.7863 43.8478 61.1884 40.567C64.4615 40.9273 70.0342 41.5788 72.6328 39.5475C75.6069 37.1559 82.0304 30.4258 85.7174 25.2517ZM22.287 117.013C20.9073 116.178 18.9756 114.192 18.6843 112.636C18.9986 112.238 19.3282 111.87 19.6348 111.456C20.6736 113.041 21.9689 114.442 23.4675 115.603C23.0465 116.049 22.6523 116.52 22.287 117.013ZM83.2262 19.8324C83.2658 19.8071 83.2943 19.7675 83.3057 19.7219C83.3171 19.6763 83.3106 19.628 83.2875 19.5871C83.0192 19.0888 82.2144 17.3335 82.7739 17.1342C83.0959 17.0115 83.3795 17.2108 83.6171 17.4791C83.98 17.9394 84.2625 18.4578 84.4527 19.0122C84.4668 19.0572 84.493 19.0976 84.5284 19.129C84.5638 19.1603 84.607 19.1814 84.6535 19.1901C84.6999 19.1987 84.7479 19.1946 84.7922 19.1781C84.8364 19.1616 84.8754 19.1334 84.9049 19.0965C85.6714 18.2456 87.4651 16.3063 88.4769 15.7851C89.2435 15.3865 89.4274 16.1224 87.5494 17.8394C87.1181 18.1683 86.7036 18.5188 86.3077 18.8895C86.2858 18.9196 86.2741 18.9558 86.2741 18.993C86.2741 19.0302 86.2858 19.0664 86.3077 19.0965C86.3077 19.2958 86.4686 19.5181 86.7446 19.3111C87.4109 18.7262 88.1151 18.1859 88.8525 17.6937C89.229 17.4263 89.6665 17.2577 90.125 17.2032C89.895 17.9084 87.7564 19.8247 87.5724 20.0393C87.5141 20.0916 87.4786 20.1647 87.4737 20.2429C87.4687 20.3211 87.4946 20.3981 87.5458 20.4574C87.5971 20.5167 87.6695 20.5535 87.7476 20.5599C87.8257 20.5662 87.9032 20.5417 87.9634 20.4916C88.8142 19.9397 90.3013 18.6519 90.8149 18.8435C91.3284 19.0352 89.803 20.4609 89.4198 20.7982C87.2198 22.7068 87.7871 21.4804 85.2422 24.0713C84.1344 22.8578 82.8624 21.8051 81.4632 20.9438L83.2262 19.8324ZM49.9204 56.4955C49.7901 55.4377 49.6292 54.2956 49.4299 53.1075L49.7595 52.6705C51.2925 50.7005 51.7525 47.5654 51.6068 45.1049C52.427 48.6999 53.0786 52.2336 53.5768 55.7443L49.9204 56.4955ZM38.5221 30.2495C36.5062 28.7165 33.2637 26.0719 31.3781 24.2629L34.4442 22.7298C37.2597 25.3597 39.6698 28.3923 41.5959 31.7289C44.541 37.1393 46.7258 42.9301 48.0884 48.9375L37.1577 33.4766L38.5835 30.5178C38.6023 30.4722 38.6066 30.4219 38.5956 30.3739C38.5846 30.3258 38.5589 30.2823 38.5221 30.2495ZM43.7039 21.5571C43.7499 21.6414 44.2788 22.7682 45.0836 24.7382C45.0836 24.8225 44.938 26.7388 44.869 27.4133C43.8907 27.0255 42.968 26.5101 42.1248 25.8803C42.2935 25.2134 43.0523 22.1856 43.106 21.5034L43.7039 21.5571ZM40.9827 29.7896C41.0364 29.6516 41.09 29.4676 41.1513 29.253L41.6649 29.5213C41.9562 29.7129 41.8412 29.1304 42.1018 30.8167C42.1018 31.1004 42.1785 31.4146 42.1938 31.7596C41.8412 31.1234 41.4043 30.4411 40.9904 29.7896H40.9827ZM40.5534 29.1457C39.1053 27.0917 37.4568 25.1865 35.6323 23.4581L41.4043 25.9646C41.182 26.4935 40.8601 28.1109 40.5611 29.1457H40.5534ZM46.4481 33.6376C45.6815 31.5449 45.0913 29.207 44.8 28.5938C44.8173 28.4026 44.8173 28.2101 44.8 28.0189C44.9109 28.0602 45.027 28.086 45.145 28.0956C45.2189 28.0964 45.2907 28.0705 45.347 28.0226C45.4033 27.9747 45.4405 27.9081 45.4516 27.8349C45.5129 27.582 45.6125 26.3019 45.6279 26.0183C47.8577 31.6481 49.7192 37.4169 51.2006 43.2882C46.8697 34.0745 47.5365 36.742 46.4557 33.6376H46.4481ZM52.7873 48.2706C51.0396 39.8925 47.9658 29.4447 44.4704 21.7027C45.7541 21.7034 47.0356 21.8059 48.3031 22.0093C48.9546 27.8349 48.4104 27.6356 48.8473 27.8656C49.2842 28.0956 51.9134 29.1534 52.3044 29.3143C52.266 29.9046 52.8179 46.7836 52.7949 48.2706H52.7873ZM43.9645 8.05079C44.3641 8.92282 44.5051 9.89119 44.3708 10.841C44.3084 11.0827 44.1801 11.3024 44.0003 11.4755C43.8204 11.6487 43.5961 11.7686 43.3522 11.8218C43.1082 11.875 42.8543 11.8595 42.6187 11.777C42.3831 11.6945 42.175 11.5483 42.0175 11.3545C41.6518 10.5841 41.3765 9.7738 41.1973 8.93996C41.4043 8.67167 43.6119 8.1351 43.9645 8.05079ZM33.417 15.7161C33.137 15.5886 32.8505 15.476 32.5585 15.3788C32.3626 15.2983 32.1877 15.174 32.0473 15.0154C31.9068 14.8568 31.8046 14.6681 31.7483 14.4639C31.6921 14.2597 31.6834 14.0453 31.7228 13.8371C31.7623 13.629 31.8489 13.4327 31.976 13.2632C32.4589 12.8569 32.8958 12.8799 33.2944 13.4855C33.5474 13.9531 33.5397 13.9914 33.6547 14.0374C33.6877 14.0519 33.7234 14.0592 33.7594 14.0589C33.7954 14.0585 33.831 14.0504 33.8636 14.0351C33.8963 14.0199 33.9253 13.9978 33.9488 13.9705C33.9722 13.9431 33.9896 13.911 33.9996 13.8764C34.1132 13.3966 34.1315 12.8992 34.0533 12.4123C33.9613 11.8834 33.946 9.53785 33.9613 9.4612C34.1852 9.57922 34.4367 9.63483 34.6895 9.62217C36.0769 9.56852 36.3529 8.85564 36.9048 8.27308C37.541 8.3344 37.6713 8.64101 38.3918 8.27308C38.7292 8.08115 39.0387 7.84387 39.3117 7.56787C39.532 7.65807 39.7447 7.76572 39.9479 7.88981C40.4073 8.11073 40.9254 8.17858 41.4262 8.08339C41.927 7.98819 42.3841 7.73498 42.7304 7.36091C42.8147 7.52188 42.8914 7.68285 42.9604 7.85149C42.256 8.07006 41.5928 8.40422 40.998 8.84031C40.8677 9.00128 41.0594 9.87513 41.1053 10.0821C40.4632 10.1629 39.8419 10.3631 39.2733 10.6723C39.1584 10.2737 38.9054 9.53019 38.5068 9.32322C38.3869 9.28652 38.2588 9.28652 38.1389 9.32322C37.449 9.43054 34.9731 10.1741 34.6742 10.5803C34.4135 10.864 35.1571 13.0562 35.387 13.4165C36.2685 14.7809 38.8517 14.3823 39.3347 12.7879C39.4542 12.2529 39.4542 11.698 39.3347 11.1629C39.557 11.1629 40.2238 10.9253 40.3005 10.9023C40.8294 12.0904 40.9827 12.1594 41.5959 13.4395C41.5116 13.5085 41.3736 13.6235 41.2587 13.7001C40.7144 14.0604 40.5994 13.9991 40.6301 14.1524C40.639 14.1828 40.6587 14.2089 40.6856 14.2259C40.7124 14.2428 40.7444 14.2494 40.7757 14.2444C41.0974 14.1984 41.4118 14.1108 41.7109 13.9837C41.8899 13.917 42.0375 13.7857 42.1248 13.6158C42.3395 13.1329 41.1513 11.3162 40.6838 10.772C40.7757 10.772 40.9904 10.6187 41.1513 10.5343C41.366 11.3929 41.5116 12.0674 42.3395 12.4047C42.5787 12.495 42.8337 12.5361 43.0892 12.5256C43.3448 12.5151 43.5955 12.4531 43.8265 12.3434C43.9492 13.6925 43.9262 15.8847 43.2823 17.0805C42.9527 17.7014 42.1402 17.939 41.6189 18.4526C41.4656 18.5982 41.5653 18.8052 41.6189 19.0275C42.4698 21.3961 42.4851 21.3884 42.4391 21.695C42.2135 22.9676 41.8984 24.2227 41.4963 25.451C41.3046 25.3667 39.1507 24.2246 34.9348 22.5842C34.8045 21.718 34.1069 17.0958 33.8846 16.245C33.9 15.9461 33.8616 15.8771 33.417 15.6778V15.7161ZM38.7828 12.5886C38.5375 13.4242 37.38 13.7844 36.5522 13.5545C35.7243 13.3245 35.6706 12.9029 35.2797 11.9064C35.0965 11.5258 34.9699 11.1203 34.9041 10.703C35.1571 10.427 37.9242 9.8598 38.2692 9.80614C38.753 10.6338 38.9345 11.6037 38.7828 12.5503V12.5886ZM8.78842 58.6111C8.49714 58.8948 8.88807 59.8223 8.94939 60.6271C8.94939 60.6961 8.94939 60.9951 8.9034 61.018C8.4818 61.156 8.09087 60.5198 7.85325 60.1365C7.61563 59.7533 7.378 59.232 7.0024 59.37C6.23587 59.7303 4.45752 62.0912 3.75998 62.3365C3.40737 61.6619 5.42335 59.7379 5.49234 59.6306C5.52191 59.5814 5.53741 59.5249 5.53714 59.4674C5.53687 59.41 5.52085 59.3537 5.49082 59.3047C5.46079 59.2557 5.41789 59.2158 5.3668 59.1895C5.31571 59.1632 5.25839 59.1514 5.20106 59.1554C5.06308 59.1554 4.97109 59.278 4.75647 59.4697C4.10364 60.1068 3.35643 60.6394 2.54119 61.0487C3.28034 60.2007 4.07139 59.3995 4.90977 58.6495C4.95118 58.6069 4.98031 58.5539 4.99409 58.4962C4.99409 58.4962 4.83312 58.0899 4.51884 58.2509C4.07426 58.4962 1.91264 59.7456 1.23043 60.0676C1.13844 60.0062 1.1921 59.9142 1.23043 59.8223C2.31123 58.4962 4.68748 56.8864 6.14389 55.867C6.31482 55.6909 6.45708 55.4892 6.56548 55.2691C7.57413 56.2076 8.65015 57.0709 9.78491 57.8523C9.43532 58.0815 9.10233 58.3351 8.78842 58.6111ZM26.6256 65.5789C26.4569 65.4716 26.3343 65.3719 26.3113 65.234C25.8897 62.1065 28.2353 44.3843 28.197 43.6868C28.197 43.6459 28.1888 43.6054 28.1729 43.5677C28.157 43.53 28.1338 43.4958 28.1045 43.4672C28.0752 43.4387 28.0405 43.4162 28.0024 43.4013C27.9643 43.3863 27.9236 43.3792 27.8827 43.3802C27.4918 43.3802 28.1816 43.3802 18.416 52.7319C17.7722 53.3374 12.851 58.0439 12.0308 58.3582C10.904 58.2739 6.66513 54.8935 5.97525 53.828C7.30901 51.1298 23.4828 28.9311 29.0785 25.5353C29.5077 25.2747 30.2436 24.8685 31.0485 24.4392C31.3268 24.7017 31.6268 24.9402 31.9453 25.1521C33.7237 26.8384 36.1996 28.9387 38.0776 30.5178L36.6135 33.4229C36.5913 33.4614 36.5796 33.505 36.5796 33.5494C36.5796 33.5938 36.5913 33.6375 36.6135 33.6759C48.5024 50.7312 48.3261 50.5396 48.4027 50.5396C49.1649 54.4807 49.6388 58.4721 49.8208 62.4821C49.8208 63.5629 49.8208 63.4709 49.8668 63.3943C49.9128 63.3176 49.8668 63.4479 49.8668 63.4479C48.0118 65.4716 29.6534 67.3573 26.6256 65.5789ZM68.9994 40.1837C65.527 40.6667 61.6024 39.9461 60.8435 39.9155C60.4218 37.872 59.5814 35.9381 58.3753 34.2355C58.3569 34.2107 58.3298 34.1937 58.2994 34.188C58.269 34.1823 58.2376 34.1883 58.2115 34.2048C58.1853 34.2212 58.1663 34.247 58.1583 34.2768C58.1503 34.3067 58.1539 34.3384 58.1683 34.3658C58.6129 35.2703 60.1 39.1719 60.4679 40.1224C60.3529 40.4904 63.9326 55.2921 62.9208 57.285C62.0163 59.0864 56.7502 61.3553 54.8492 62.0069C54.4734 57.7395 53.8592 53.4966 53.0096 49.2978C53.2702 47.0902 52.9329 33.9672 52.8333 29.115C52.8303 29.0587 52.8115 29.0043 52.7789 28.9581C52.7464 28.912 52.7014 28.8761 52.6493 28.8544L49.2076 27.4057C49.1919 25.5841 49.0768 23.7647 48.8626 21.9557C57.4554 23.4427 67.4663 28.3562 68.3018 28.3638C69.513 28.3638 78.512 21.4651 80.3747 21.1891C81.2026 21.0588 84.7593 24.1633 85.1732 25.0218C81.5398 30.0962 75.1546 36.765 72.1958 39.0723C71.2427 39.7096 70.1423 40.0922 68.9994 40.1837Z" fill="#F9C784"/>
</svg>
