<svg width="37" height="36" viewBox="0 0 37 36" fill="none" xmlns="http://www.w3.org/2000/svg">
<path d="M29.4549 17.0759C29.4966 16.9984 29.5153 16.9106 29.5086 16.8229C29.5086 15.6041 27.7609 2.07489 27.14 0.994078C27.0913 0.914393 27.0224 0.849009 26.9403 0.80458C26.8582 0.76015 26.7658 0.738258 26.6724 0.741121C24.1045 0.426844 2.44239 4.65809 1.01664 5.64692C0.817347 5.78489 0.848008 6.12983 0.871004 6.49777C0.993648 8.51374 3.1706 21.7747 3.93713 21.6981C4.02144 21.6981 3.99078 21.6367 3.79149 22.043C2.5957 24.5036 0.326767 32.3835 0.372759 33.9702C0.372759 34.6371 0.526065 35.5033 1.18528 35.4573C5.91477 34.8747 29.1023 31.1954 35.7711 29.8233C36.0318 29.7696 36.2004 29.532 36.1927 29.1411C36.114 28.4898 35.9166 27.8585 35.6102 27.2784C34.675 25.5231 30.7964 18.5706 29.4549 17.0759ZM3.98312 21.4604C3.38522 20.6939 1.18528 7.48659 1.35392 6.02252C3.04029 5.14867 24.4112 1.01707 26.6494 1.35435C27.2627 3.04072 28.8494 15.2209 28.949 16.685C26.2355 17.6201 7.44784 20.6556 3.98312 21.4604ZM4.32039 21.6904C4.96428 21.5294 26.8947 17.8577 28.903 17.3288C29.9992 18.3483 34.951 27.1558 35.2729 27.907C30.873 28.6735 4.77264 33.0351 0.932326 33.6176C0.985983 31.295 3.36989 23.1775 4.32039 21.6904Z" fill="#F9C784"/>
</svg>
