<svg width="133" height="119" viewBox="0 0 133 119" fill="none" xmlns="http://www.w3.org/2000/svg">
<path d="M26.0236 101.904C25.3562 101.674 24.6411 101.618 23.9463 101.743C23.6583 101.083 23.3038 100.453 22.8884 99.8649C23.3867 99.4126 24.7511 98.1555 24.4215 97.5653C23.2485 96.1622 21.8558 94.9584 20.2976 94.0009C19.6469 93.6364 18.9305 93.4045 18.1896 93.3187C17.699 93.3877 16.5339 95.2963 16.2733 95.7256C16.1047 95.7256 15.5068 95.534 15.4608 95.511C15.4608 94.9591 15.2998 92.9661 14.8015 92.7361C14.2444 92.531 13.6658 92.3896 13.0769 92.3145C12.5326 92.2302 7.63449 93.1271 7.27422 93.7863C7.0366 94.2309 7.5885 95.9096 7.74947 96.3772C7.33606 96.6047 6.93906 96.8608 6.56135 97.1437C5.79482 97.6879 6.00178 97.6649 5.8638 97.6036C5.69704 97.524 5.51838 97.4722 5.3349 97.4503C4.72257 97.0913 4.00464 96.9558 3.30359 97.067C2.59838 97.297 0.935012 101.084 0.666726 102.057C0.578925 102.303 0.555181 102.566 0.597738 102.824C0.781705 103.33 2.00815 103.736 2.52173 103.897C2.3799 104.883 2.3799 105.885 2.52173 106.871C1.84718 107.055 0.444432 107.469 0.521085 108.159C0.597738 108.849 2.39142 113.402 3.13495 113.762C3.54227 113.99 3.99268 114.13 4.45733 114.174C4.92197 114.217 5.39059 114.163 5.83314 114.015C6.08239 113.891 6.3231 113.75 6.55368 113.593C6.86029 113.823 7.18224 114.03 7.51184 114.23C7.27422 114.82 6.74531 116.138 6.91395 116.736C6.99827 117.05 7.25122 117.15 7.60383 117.28C8.57732 117.633 13.8204 118.89 14.6176 118.752C14.9165 118.706 15.0775 118.392 15.1695 118.093C15.3398 117.413 15.44 116.716 15.4684 116.016C15.8621 115.977 16.2535 115.918 16.6412 115.839C16.878 116.256 17.1809 116.631 17.5381 116.951C17.929 117.227 18.2586 117.089 18.7032 116.805C18.9178 117.081 19.2398 117.464 19.5847 117.503C20.4509 117.602 24.0306 114.23 24.3985 113.54C24.7051 112.965 23.586 111.938 23.0877 111.485C23.6267 110.674 24.0499 109.792 24.3449 108.864C24.8977 108.947 25.4572 108.978 26.0159 108.956C26.2688 108.956 26.5601 108.864 26.6674 108.626C27.135 107.561 26.9971 103.521 26.6674 102.494C26.6215 102.195 26.2765 101.996 26.0236 101.904ZM26.2075 102.609C26.4681 103.606 26.5525 107.369 26.1692 108.343C25.5065 108.408 24.8377 108.377 24.1839 108.251C24.1141 108.239 24.0423 108.253 23.9827 108.292C23.9232 108.33 23.8801 108.389 23.8619 108.458C23.5567 109.494 23.0827 110.473 22.4592 111.355C22.4148 111.414 22.3947 111.487 22.4033 111.56C22.4119 111.633 22.4484 111.7 22.5052 111.746C23.043 112.172 23.4999 112.692 23.8543 113.279C23.471 113.908 20.4739 116.652 19.646 116.882C19.5234 116.882 19.1861 116.422 19.1018 116.299C18.8186 115.874 18.5626 115.431 18.3353 114.973C18.3021 114.906 18.2452 114.855 18.1757 114.828C18.1062 114.801 18.0291 114.801 17.9597 114.828C15.7367 115.663 14.8935 115.172 14.8935 115.724C14.8945 116.551 14.7599 117.372 14.4949 118.154C12.6936 117.958 10.9196 117.563 9.20588 116.974C9.28864 116.155 9.51709 115.359 9.88042 114.621C10.1104 114.107 9.19055 114.253 7.47352 112.505C7.41826 112.454 7.34571 112.425 7.27039 112.425C7.19506 112.425 7.12252 112.454 7.06726 112.505C6.30073 113.134 5.30424 113.747 5.10494 113.647C4.71401 113.455 2.91266 109.37 2.80535 108.542C3.35055 108.162 3.96947 107.901 4.62202 107.775C4.69162 107.756 4.75172 107.712 4.79118 107.651C4.83065 107.59 4.8468 107.517 4.83665 107.446C4.6488 106.36 4.6488 105.251 4.83665 104.165C4.84837 104.098 4.83432 104.029 4.79734 103.973C4.76036 103.916 4.70319 103.875 4.63735 103.858C4.05949 103.707 3.50315 103.483 2.98165 103.192C2.81301 103.069 2.82834 103.077 2.84367 102.946C3.33981 101.157 4.13549 99.4645 5.19692 97.9409C5.61085 97.8259 6.72998 98.6461 7.11325 98.9374C7.1533 98.9762 7.20691 98.998 7.26272 98.998C7.31853 98.998 7.37215 98.9762 7.4122 98.9374C7.7644 98.5721 8.14363 98.2338 8.54666 97.9255C9.71179 97.044 10.0261 97.159 9.92642 96.8524C9.57404 96.0833 9.37611 95.2525 9.34385 94.4072C9.46265 94.3084 9.59746 94.2306 9.74245 94.1772C10.4581 93.8942 11.1933 93.6637 11.9424 93.4873C12.8503 93.2343 13.7835 93.0826 14.7249 93.0351C14.8859 93.1041 15.0315 93.8016 15.0698 94.0162C15.3535 95.5493 15.1618 95.8636 15.3841 95.8866C17.5687 96.1012 18.0133 96.7068 18.1666 96.4385C18.5917 95.6952 19.0871 94.9945 19.646 94.3458C19.807 94.1849 19.7993 94.1082 20.2822 94.3842C21.7249 95.3269 23.017 96.4821 24.1149 97.8106C24.2299 98.0099 23.2334 99.0677 22.5052 99.6886C22.2522 99.9109 22.6125 100.011 23.2717 101.268C23.9309 102.525 23.7776 102.877 24.1302 102.801C24.81 102.638 25.5095 102.573 26.2075 102.609ZM132.594 38.5578C130.987 37.9014 129.302 37.4557 127.581 37.2317C126.324 37.0324 124.845 36.8331 123.595 36.6721C124.799 34.9704 128.363 30.6625 128.961 29.6123C129.13 29.3287 128.808 28.9301 128.57 28.6925C127.236 27.2668 124.661 26.7302 122.683 26.4236C121.549 26.2396 116.811 25.657 116.007 26.0403C115.041 26.5002 107.897 37.2317 107.682 38.8644C107.682 39.1403 107.774 39.2476 108.042 39.3473C109.169 39.7612 114.251 40.4051 115.386 40.6734C113.853 43.3562 107.038 52.4243 106.371 53.7044C106.21 54.0263 106.31 54.218 106.502 54.2793C107.191 54.5531 107.901 54.7735 108.625 54.9385C108.901 55.0228 109.506 54.6472 110.388 54.1107C114.343 51.7344 131.314 40.5277 132.617 39.079C132.653 39.045 132.681 39.0037 132.7 38.9578C132.719 38.9119 132.727 38.8626 132.725 38.8131C132.723 38.7637 132.71 38.7153 132.687 38.6712C132.665 38.6271 132.633 38.5885 132.594 38.5578ZM116.122 47.7561C109.606 52.0564 107.406 53.3135 107.329 53.3671C108.38 51.7651 114.903 42.8273 116.022 40.6887C116.041 40.6474 116.051 40.6023 116.051 40.5566C116.051 40.5109 116.041 40.4659 116.021 40.4247C116.001 40.3836 115.972 40.3474 115.937 40.3188C115.901 40.2902 115.859 40.2699 115.815 40.2594C115.048 39.9835 109.468 39.3856 108.15 38.918C108.318 37.4923 115.278 26.7149 116.122 26.2856C116.965 25.8563 125.144 26.8298 126.677 27.926C125.872 29.4974 121.426 35.0011 120.705 36.2812C120.56 36.5418 120.514 36.7947 120.797 36.8637C121.081 36.9327 128.286 37.7759 129.858 38.2895C127.941 39.8915 118.268 46.315 116.122 47.7255V47.7561ZM66.9486 0.890437C66.9486 0.959425 66.9946 1.04374 67.1096 1.48833C67.1398 1.58477 67.2061 1.66579 67.2947 1.71438C67.3833 1.76297 67.4873 1.77536 67.5848 1.74895C67.6824 1.72049 67.7647 1.65443 67.8136 1.5653C67.8625 1.47618 67.8739 1.37128 67.8455 1.2737C67.7688 0.974755 67.6998 0.721799 67.6538 0.599154C67.6092 0.514982 67.5348 0.450462 67.4451 0.418177C67.3555 0.385893 67.257 0.388161 67.169 0.424537C67.0809 0.460913 67.0095 0.528789 66.9688 0.614927C66.9281 0.701065 66.9209 0.799287 66.9486 0.890437Z" fill="#F9C784"/>
</svg>
