<svg width="138" height="146" viewBox="0 0 138 146" fill="none" xmlns="http://www.w3.org/2000/svg">
<path d="M68.9933 23.0556C68.9837 23.0053 68.9643 22.9573 68.9362 22.9145C68.9081 22.8716 68.8719 22.8347 68.8295 22.8059C68.7872 22.7771 68.7396 22.7569 68.6894 22.7465C68.6392 22.736 68.5875 22.7356 68.5372 22.7452C68.4868 22.7547 68.4389 22.7741 68.396 22.8022C68.3532 22.8303 68.3163 22.8666 68.2875 22.9089C68.2587 22.9513 68.2385 22.9989 68.228 23.049C68.2176 23.0992 68.2172 23.1509 68.2267 23.2012C68.38 23.9678 68.4107 24.1441 68.748 24.1441C68.8117 24.1443 68.8745 24.1286 68.9307 24.0984C68.9868 24.0683 69.0346 24.0246 69.0696 23.9713C69.1046 23.918 69.1258 23.8568 69.1312 23.7933C69.1366 23.7298 69.1261 23.6659 69.1006 23.6075C69.0776 23.4849 69.0086 23.1246 68.9933 23.0556ZM71.3388 28.13C71.8371 28.2757 72.3123 28.0381 72.297 27.9154C72.2817 27.7928 72.297 27.8541 71.6225 27.6011C71.1702 27.4325 70.672 26.8346 70.4957 26.9266C70.3194 27.0186 70.5876 27.5091 70.649 27.6011C70.813 27.8499 71.056 28.0363 71.3388 28.13ZM85.3587 20.848C84.3545 25.0562 83.6187 28.6283 83.496 29.3412C83.4146 29.6513 83.3989 29.9751 83.45 30.2917C83.8563 31.1578 89.107 32.8672 89.7739 32.5299C90.4408 32.1926 92.1732 28.291 94.1891 24.2667C95.4241 24.3062 96.6599 24.2163 97.8761 23.9984C99.1568 23.7635 100.403 23.3695 101.586 22.8256C104.177 21.6299 107.013 16.5094 107.396 13.9339C107.684 11.1376 107.092 8.32134 105.702 5.87765C99.2712 -5.27537 80.4069 0.726564 81.94 13.1137C82.3777 15.9481 83.5572 18.6164 85.3587 20.848ZM90.0345 29.9774C90.0345 30.1 89.8966 30.0847 89.268 29.9774C87.9823 29.8158 86.7376 29.4182 85.5963 28.8046C85.0597 28.5133 84.9141 28.452 84.9678 28.3217C85.0214 28.1914 85.1364 28.2373 85.9643 28.4673C86.0409 28.4673 88.4171 29.2338 89.0994 29.4715C89.9809 29.8701 90.0345 29.8701 90.0345 29.9774ZM89.8966 17.5059C90.7151 17.5484 91.5308 17.3794 92.2651 17.0153C92.9477 17.346 93.686 17.5462 94.4421 17.6056C93.1543 20.0048 90.5404 24.8953 89.6973 27.5015L86.4472 26.6046C87.2137 24.719 88.9077 20.3038 89.8812 17.5059H89.8966ZM89.6283 16.8697C89.0561 16.7832 88.528 16.5115 88.1251 16.0961C87.7222 15.6807 87.4666 15.1447 87.3977 14.5701C87.183 13.037 88.1642 11.32 89.6436 11.7263C90.5711 11.9792 90.6861 12.7151 90.5251 13.6426C90.3871 14.3172 89.8889 16.0112 89.6129 16.839L89.6283 16.8697ZM91.7132 15.03C91.7951 14.5284 91.9833 14.0502 92.2651 13.6273C92.3992 13.3967 92.5953 13.2085 92.8311 13.0838C93.0669 12.9591 93.3329 12.9031 93.5989 12.9221C94.1661 13.0907 94.4114 14.1638 93.9438 14.8384C93.4945 15.4347 92.935 15.9395 92.2958 16.3255C92.0758 16.1964 91.9006 16.0031 91.7938 15.7715C91.6869 15.5399 91.6534 15.2812 91.6979 15.03H91.7132ZM84.6688 5.28742C88.1029 1.15582 94.5647 -0.484555 99.2329 1.21714C101.769 2.08765 103.902 3.85022 105.235 6.1766C106.556 8.50191 107.122 11.1809 106.852 13.8419C106.5 16.2258 103.786 21.1776 101.402 22.2737C99.2226 23.2679 96.8445 23.7504 94.4497 23.6842C94.1891 23.6842 93.9132 23.6842 93.8135 23.8681C93.3613 24.788 92.5334 26.5663 91.7209 28.2374C91.1598 27.9664 90.578 27.7409 89.9809 27.5628C90.8701 25.0179 93.6756 20.0201 95.0093 17.5979C96.165 17.6969 97.3266 17.4963 98.382 17.0153C98.6672 16.8652 98.9036 16.6369 99.0636 16.3572C99.2236 16.0774 99.3004 15.7578 99.2851 15.4359C99.2698 15.114 99.163 14.8032 98.9773 14.5398C98.7915 14.2765 98.5345 14.0716 98.2364 13.9492C97.0483 13.3667 95.9828 14.7617 95.3619 15.9345C95.1933 16.2411 95.0017 16.6014 94.787 17.0077C94.167 16.9669 93.5557 16.8405 92.9703 16.6321C93.5533 16.2224 94.0703 15.7261 94.5034 15.1603C94.7461 14.7938 94.8691 14.361 94.8554 13.9217C94.8416 13.4823 94.6919 13.0581 94.4267 12.7074C94.2185 12.4656 93.9292 12.308 93.6131 12.2643C93.297 12.2205 92.9758 12.2936 92.7097 12.4698C92.1729 12.7997 91.7427 13.2775 91.4708 13.8458C91.1988 14.4142 91.0967 15.0489 91.1767 15.6739C91.26 16.0267 91.45 16.3452 91.7209 16.5861C91.2181 16.7943 90.6784 16.8986 90.1342 16.8927C90.4408 15.9882 90.939 14.3555 91.0694 13.6886C91.1511 13.3084 91.1692 12.9173 91.123 12.5311C91.0637 12.1997 90.9099 11.8924 90.6801 11.6462C90.4502 11.4001 90.1542 11.2256 89.8276 11.1437C87.9649 10.6148 86.5928 12.6768 86.8611 14.6008C86.9369 15.2903 87.2328 15.937 87.705 16.4451C88.1772 16.9532 88.8005 17.2956 89.4826 17.4216C88.5015 20.1811 86.9684 24.6347 86.2019 26.5357L84.5155 26.0987C85.5963 20.6717 85.7266 20.802 85.5733 20.733C83.8316 18.5124 82.7173 15.8654 82.3462 13.0677C82.1656 11.6805 82.279 10.2708 82.6792 8.93028C83.0793 7.58979 83.7572 6.34858 84.6688 5.28742ZM95.3083 17.0537C95.8448 16.0802 96.918 13.9492 97.9605 14.4705C98.169 14.5545 98.3506 14.6938 98.4856 14.8735C98.6207 15.0532 98.7042 15.2663 98.727 15.4899C98.7116 16.839 96.6114 17.0767 95.2776 17.0537H95.3083ZM124.651 20.4341C125.575 19.8908 126.666 19.7054 127.717 19.9128C128.872 19.9335 129.975 20.3953 130.801 21.2034C131.626 22.0116 132.111 23.1049 132.155 24.2591C131.461 23.8561 130.649 23.7045 129.856 23.8298C127.932 23.9984 125.418 25.0409 125.755 26.8959C126.031 28.429 128.054 28.222 129.588 27.8081C131.121 27.3942 132.339 26.643 132.654 25.1636C134.516 26.5203 134.953 28.8966 135.03 31.2192C135.03 31.2517 135.043 31.2829 135.066 31.3059C135.089 31.3289 135.12 31.3418 135.153 31.3418C135.185 31.3418 135.216 31.3289 135.239 31.3059C135.262 31.2829 135.275 31.2517 135.275 31.2192C135.329 28.6206 134.861 26.0757 132.738 24.5963C132.76 23.9308 132.646 23.2678 132.404 22.6474C132.163 22.027 131.797 21.4621 131.331 20.987C130.864 20.5119 130.306 20.1364 129.69 19.8832C129.074 19.6301 128.414 19.5045 127.748 19.5142C126.684 19.3588 125.599 19.5812 124.682 20.1428C124.398 20.2808 124.528 20.4877 124.651 20.4341ZM131.642 25.9301C130.776 27.0646 128.323 27.6548 127.188 27.4632C126.767 27.3942 126.422 27.2179 126.33 26.7809C126.054 25.2479 128.698 24.4124 130.277 24.3587C130.92 24.3094 131.562 24.4738 132.102 24.8263C132.044 25.2271 131.886 25.6067 131.642 25.9301ZM121.14 11.4733C121.961 10.4615 121.409 8.69848 119.117 8.69082C118.228 8.69082 117.798 9.59532 117.86 10.4615C117.998 12.5235 120.32 12.4621 121.14 11.4733ZM118.396 10.4232C118.396 9.91727 118.634 9.25805 119.163 9.26572C120.397 9.26572 120.964 9.84061 120.964 10.4768C120.933 11.9256 118.297 12.6768 118.396 10.4232ZM118.082 97.3248C111.344 94.6342 108.217 107.658 102.713 118.849C102.678 119.319 102.694 119.792 102.759 120.259C102.759 121.432 102.889 129.197 103.571 130.079C103.755 130.431 104.53 130.079 104.89 129.856C107.95 127.962 110.833 125.797 113.506 123.387C113.528 123.361 113.546 123.33 113.556 123.297C113.567 123.264 113.57 123.23 113.567 123.195C114.993 121.164 120.335 110.586 121.631 105.281C122.535 101.525 121.639 98.7275 118.082 97.3248ZM120.489 107.06C116.882 106.597 113.394 105.458 110.21 103.702C112.003 100.307 114.219 96.4356 117.875 97.892C121.945 99.5094 121.861 102.859 120.489 107.037V107.06ZM107.734 126.989C107.498 126.792 107.241 126.622 106.967 126.484C105.931 125.957 104.735 125.842 103.617 126.162C103.541 125.249 103.104 119.317 103.104 119.263C108.845 121.363 107.074 120.451 112.762 123.279C112.164 123.847 109.918 125.418 107.734 126.974V126.989ZM111.689 104.806C112.437 105.215 113.204 105.585 113.989 105.918C112.232 108.677 110.679 111.562 109.343 114.549C108.056 117.239 108.102 117.224 106.791 120.16C106.024 119.914 105.258 119.684 104.491 119.454C105.319 117.806 111.206 105.757 111.689 104.791V104.806ZM107.09 120.236C109.581 115.767 112.118 110.21 114.295 106.017C115.062 106.339 115.828 106.6 116.595 106.83C116.189 107.596 115 109.635 114.686 110.225C114.372 110.816 111.221 117.025 110.999 117.5C110.647 118.266 109.681 120.405 109.382 121.087C108.6 120.742 107.849 120.482 107.059 120.221L107.09 120.236ZM109.658 121.187C110.125 120.336 112.049 116.764 112.287 116.304C112.647 115.591 116.664 107.382 116.886 106.906C117.591 107.106 118.335 107.274 118.81 107.366C117.407 111.199 113.368 118.581 111.911 122.222C110.585 121.601 110.286 121.447 109.627 121.172L109.658 121.187ZM110.125 103.925L111.497 104.691C108.732 109.4 106.324 114.309 104.292 119.378L103.142 119.025C107.596 109.536 107.803 108.294 110.095 103.909L110.125 103.925ZM113.283 122.889L112.126 122.337C113.375 119.884 117.285 113.591 119.071 107.42C119.5 107.497 119.922 107.566 120.328 107.619C118.358 112.875 115.993 117.975 113.253 122.873L113.283 122.889ZM89.268 127.863C89.5735 127.61 89.7919 127.268 89.8923 126.884C89.9927 126.5 89.9701 126.095 89.8276 125.725C89.7625 125.191 89.5176 124.695 89.1331 124.318C88.7486 123.942 88.2474 123.708 87.712 123.654C87.1767 123.601 86.639 123.731 86.1876 124.024C85.7362 124.316 85.3979 124.754 85.2284 125.265C84.2472 124.629 83.1817 123.954 82.1623 123.31C82.9288 122.291 85.1824 122.743 85.4123 123.578C85.4174 123.611 85.4352 123.64 85.4618 123.66C85.4884 123.679 85.5216 123.687 85.5542 123.682C85.5867 123.677 85.6159 123.659 85.6353 123.632C85.6547 123.606 85.6627 123.573 85.6576 123.54C85.5427 122.206 82.7678 121.424 81.6487 122.996C80.6599 122.39 79.4334 121.654 78.4063 121.095C79.2878 120.328 81.2578 120.758 81.4724 121.555C81.4825 121.582 81.5019 121.605 81.5273 121.619C81.5526 121.633 81.5822 121.638 81.6107 121.633C81.6393 121.627 81.6649 121.612 81.6831 121.589C81.7013 121.566 81.7108 121.538 81.71 121.509C81.6104 120.267 79.0425 119.431 77.8774 120.796C77.3892 120.522 76.8758 120.296 76.3443 120.121C76.2472 120.081 76.1405 120.07 76.0371 120.089C75.9337 120.108 75.8381 120.156 75.7617 120.229C73.8224 122.643 67.2839 128.913 64.2638 129.642C64.1878 129.653 64.1163 129.684 64.0563 129.732C63.9963 129.78 63.9499 129.843 63.9219 129.915C63.894 129.986 63.8853 130.064 63.8969 130.14C63.9085 130.215 63.9398 130.287 63.9878 130.347C64.651 131.02 65.4105 131.591 66.2414 132.041C65.4749 132.807 64.877 133.497 64.4324 133.996C64.2024 134.241 64.0798 138.932 64.2791 139.967C64.3088 140.068 64.3741 140.155 64.4631 140.212C65.4289 140.871 77.8697 146.252 79.1421 145.532C79.993 145.049 90.1495 134.478 90.3105 134.157C90.5558 133.651 90.4715 130.278 90.4561 128.929C90.3948 128.523 89.6359 128.086 89.268 127.863ZM64.739 137.989V136.28C67.9201 137.813 75.2022 140.94 77.9617 141.814C78.6669 142.044 78.7282 142.013 79.0961 141.814C81.2041 140.465 88.6471 132.079 90.0115 130.799V132.417C85.8723 136.563 78.8432 143.83 78.7129 143.416C77.954 143.37 65.3982 138.296 64.739 137.989ZM89.0764 125.28C89.3519 125.744 89.5 126.273 89.5056 126.813C89.503 126.985 89.4608 127.154 89.3824 127.307C89.3039 127.46 89.1914 127.592 89.0534 127.695C88.4095 127.265 87.1907 126.468 85.7496 125.533C86.5392 123.977 88.2945 123.954 89.0457 125.28H89.0764ZM64.5474 130.186C67.8128 129.22 74.014 123.241 76.099 120.65C76.6008 120.79 77.0845 120.988 77.5401 121.241C76.7735 122.666 77.5937 124.23 77.885 124.008C78.046 123.885 77.7547 123.839 77.7087 123.088C77.6891 122.539 77.8133 121.995 78.069 121.509C79.1268 122.061 80.3686 122.781 81.4187 123.387C80.7748 124.82 81.549 126.238 81.8173 126.031C82.0856 125.824 81.6947 125.87 81.6487 125.119C81.63 124.627 81.7244 124.136 81.9246 123.686C83.0054 124.322 84.1092 124.981 85.1211 125.602C84.9651 125.984 84.9032 126.398 84.9406 126.809C84.978 127.22 85.1135 127.615 85.3357 127.963C85.3458 127.976 85.3583 127.987 85.3726 127.995C85.3869 128.004 85.4027 128.009 85.4191 128.011C85.4355 128.013 85.4521 128.012 85.468 128.008C85.484 128.003 85.4989 127.996 85.512 127.986C85.5251 127.976 85.5361 127.963 85.5443 127.949C85.5525 127.935 85.5579 127.919 85.56 127.903C85.5622 127.886 85.561 127.87 85.5567 127.854C85.5525 127.838 85.5451 127.823 85.535 127.81C85.3972 127.505 85.3292 127.174 85.3358 126.84C85.3425 126.505 85.4236 126.177 85.5733 125.878C87.3593 126.966 88.8004 127.879 89.245 128.178C89.1607 128.254 81.1658 135.368 78.4446 137.483C76.6586 137.016 67.2839 132.363 64.5474 130.186ZM64.8387 134.456C68.3111 135.989 76.1987 139.545 78.0153 139.89C78.3296 139.952 78.4522 139.975 79.0501 139.499C81.6027 137.453 89.9042 128.768 89.9809 128.86C89.9846 128.883 89.9846 128.906 89.9809 128.929V130.462C88.2715 131.834 78.7665 141.814 78.6132 141.339C77.8467 141.339 65.3906 136.257 64.7543 135.973C64.739 135.651 64.808 134.793 64.8387 134.456ZM78.7972 145.018C78.0307 145.455 66.3564 140.71 64.7927 139.745C64.734 139.256 64.7058 138.765 64.7084 138.273C68.0658 139.929 77.8314 144.052 78.7282 144.014C80.039 143.945 89.3063 133.513 89.9655 132.784C89.9731 133.176 89.9345 133.567 89.8506 133.95C89.7203 134.203 79.3031 144.735 78.7972 145.018ZM15.2901 101.809C15.3438 102.629 15.3821 103.342 15.3821 104.009C15.3821 104.111 15.4225 104.208 15.4944 104.28C15.5662 104.352 15.6637 104.392 15.7654 104.392C15.867 104.392 15.9645 104.352 16.0364 104.28C16.1083 104.208 16.1486 104.111 16.1486 104.009C16.1486 103.296 16.1103 102.591 16.0567 101.755C16.0495 101.654 16.0023 101.559 15.9254 101.492C15.8485 101.425 15.7482 101.392 15.6466 101.399C15.5449 101.406 15.4503 101.453 15.3834 101.53C15.3166 101.607 15.283 101.707 15.2901 101.809ZM132.086 86.44C132.036 86.4429 131.987 86.4558 131.942 86.4779C131.897 86.5 131.857 86.5309 131.824 86.5688C131.792 86.6067 131.767 86.6507 131.751 86.6984C131.735 86.746 131.73 86.7963 131.734 86.8463C131.78 87.5515 131.826 88.3104 131.826 89.0462C131.826 89.1479 131.866 89.2454 131.938 89.3172C132.01 89.3891 132.107 89.4295 132.209 89.4295C132.311 89.4295 132.408 89.3891 132.48 89.3172C132.552 89.2454 132.592 89.1479 132.592 89.0462C132.592 88.2797 132.546 87.5132 132.493 86.7926C132.49 86.7426 132.477 86.6936 132.455 86.6486C132.433 86.6036 132.402 86.5635 132.364 86.5307C132.326 86.4978 132.282 86.4729 132.234 86.4573C132.187 86.4417 132.136 86.4359 132.086 86.44ZM13.3048 99.9003C13.4065 99.9003 13.5039 99.8599 13.5758 99.788C13.6477 99.7162 13.6881 99.6187 13.6881 99.517C13.6881 99.4154 13.6477 99.3179 13.5758 99.246C13.5039 99.1741 13.4065 99.1338 13.3048 99.1338C12.3773 99.1338 11.6031 99.2028 10.8366 99.1874C10.7342 99.1874 10.6359 99.2275 10.5628 99.2992C10.4897 99.3709 10.4477 99.4683 10.4457 99.5707C10.4457 99.6723 10.486 99.7698 10.5579 99.8417C10.6298 99.9136 10.7273 99.9539 10.8289 99.9539C11.6184 99.9693 12.4846 99.9386 13.3048 99.9003ZM129.71 84.1711C128.79 84.1711 128.016 84.2248 127.242 84.2324C127.14 84.2324 127.043 84.2728 126.971 84.3447C126.899 84.4165 126.859 84.514 126.859 84.6157C126.859 84.7173 126.899 84.8148 126.971 84.8867C127.043 84.9586 127.14 84.9989 127.242 84.9989C128.07 84.9989 128.928 84.9989 129.756 84.9376C129.858 84.9315 129.953 84.8853 130.02 84.8091C130.088 84.7329 130.123 84.633 130.116 84.5314C130.11 84.4297 130.064 84.3346 129.988 84.2671C129.912 84.1995 129.812 84.165 129.71 84.1711ZM15.0832 95.1631C15.1292 95.8683 15.1751 96.6272 15.1751 97.3631C15.1771 97.4641 15.2181 97.5605 15.2896 97.6319C15.361 97.7034 15.4574 97.7444 15.5584 97.7464C15.6601 97.7464 15.7575 97.706 15.8294 97.6341C15.9013 97.5622 15.9417 97.4647 15.9417 97.3631C15.9417 96.5966 15.8957 95.83 15.8497 95.1095C15.8426 95.0078 15.7954 94.9132 15.7185 94.8463C15.6416 94.7795 15.5412 94.7459 15.4396 94.7531C15.3379 94.7602 15.2433 94.8074 15.1764 94.8843C15.1096 94.9612 15.076 95.0615 15.0832 95.1631ZM132.385 82.4004C132.385 81.6339 132.339 80.8673 132.286 80.1468C132.279 80.0452 132.231 79.9505 132.154 79.8837C132.078 79.8168 131.977 79.7833 131.876 79.7904C131.774 79.7975 131.679 79.8447 131.612 79.9216C131.546 79.9985 131.512 80.0988 131.519 80.2005C131.565 80.9057 131.611 81.6645 131.611 82.4004C131.611 82.5021 131.652 82.5995 131.723 82.6714C131.795 82.7433 131.893 82.7837 131.994 82.7837C132.097 82.7837 132.195 82.7436 132.268 82.6719C132.341 82.6002 132.383 82.5028 132.385 82.4004ZM20.7402 99.8006C20.7905 99.7987 20.84 99.7868 20.8857 99.7657C20.9315 99.7446 20.9726 99.7147 21.0068 99.6776C21.0409 99.6406 21.0675 99.5972 21.0849 99.5499C21.1023 99.5026 21.1101 99.4524 21.1081 99.4021C21.1004 99.3017 21.055 99.2081 20.981 99.1398C20.9071 99.0716 20.8101 99.0338 20.7095 99.0341C19.782 99.0724 19.0078 99.1031 18.2336 99.0878C18.132 99.0878 18.0345 99.1281 17.9626 99.2C17.8907 99.2719 17.8503 99.3694 17.8503 99.471C17.8503 99.5727 17.8907 99.6702 17.9626 99.742C18.0345 99.8139 18.132 99.8543 18.2336 99.8543C19.0538 99.8696 19.9123 99.839 20.7402 99.8006ZM137.146 84.0714C136.379 84.1098 135.528 84.1328 134.677 84.1328C134.627 84.1307 134.576 84.1389 134.529 84.1568C134.481 84.1748 134.438 84.2021 134.402 84.2372C134.365 84.2723 134.336 84.3144 134.316 84.361C134.297 84.4076 134.286 84.4577 134.286 84.5084C134.286 84.6107 134.326 84.709 134.398 84.7821C134.47 84.8552 134.567 84.8973 134.67 84.8993C135.543 84.8993 136.249 84.8993 137.176 84.838C137.227 84.836 137.276 84.8241 137.322 84.803C137.367 84.7819 137.409 84.752 137.443 84.715C137.477 84.6779 137.503 84.6345 137.521 84.5873C137.538 84.54 137.546 84.4897 137.544 84.4394C137.535 84.3397 137.489 84.247 137.415 84.1791C137.342 84.1112 137.246 84.0729 137.146 84.0714ZM3.12528 77.0883C3.22493 77.165 24.8411 73.9609 25.7686 73.3937C25.82 73.3562 25.861 73.3063 25.8878 73.2487C25.9146 73.191 25.9263 73.1275 25.9219 73.0641C25.9219 72.0752 24.6265 62.7926 24.0056 60.4776C23.9289 60.194 23.8523 59.9104 23.676 59.8107C22.5032 59.1055 1.83751 62.9995 0.603396 63.7967C0.56995 63.8165 0.541053 63.8431 0.518597 63.8748C0.496141 63.9065 0.480633 63.9426 0.473086 63.9807C0.212466 64.9082 2.4584 76.6284 3.12528 77.0883ZM0.94067 64.1646C2.41241 63.4978 21.1694 60.0637 23.3157 60.332C23.8369 61.6734 25.232 71.5003 25.324 72.9414C24.2585 73.2557 3.41656 76.8354 3.33991 76.8507C3.26326 76.8661 3.25559 76.958 3.09462 76.4751C2.42007 74.4515 0.902344 65.897 0.94067 64.1646Z" fill="#F9C784"/>
</svg>
