<svg width="48" height="129" viewBox="0 0 48 129" fill="none" xmlns="http://www.w3.org/2000/svg">
<path d="M4.20237 82.6394C4.86925 82.5398 19.0194 80.8381 24.1322 79.4506C24.1637 79.4425 24.1907 79.4222 24.2072 79.3942C24.2237 79.3661 24.2284 79.3327 24.2203 79.3012C24.2122 79.2697 24.1919 79.2427 24.1638 79.2261C24.1358 79.2096 24.1024 79.2049 24.0708 79.213C23.0667 79.42 10.8175 81.0527 4.18704 82.4018C4.16872 82.3985 4.14989 82.3994 4.13198 82.4045C4.11407 82.4095 4.09755 82.4186 4.08366 82.431C4.06978 82.4434 4.05889 82.4588 4.05184 82.476C4.04478 82.4932 4.04174 82.5118 4.04293 82.5304C4.04413 82.549 4.04954 82.567 4.05875 82.5832C4.06796 82.5994 4.08073 82.6132 4.0961 82.6237C4.11146 82.6342 4.12901 82.6411 4.14742 82.6438C4.16584 82.6465 4.18463 82.645 4.20237 82.6394ZM14.5429 29.3042C14.2565 29.9509 14.0158 30.6169 13.8223 31.2972C13.8109 31.4064 13.841 31.5158 13.9066 31.6038C14.6808 32.7689 22.6144 41.7143 24.6841 42.9715C24.9677 43.1478 25.305 43.2704 25.5119 43.0174C27.0154 41.1467 28.9774 39.6969 31.2072 38.8092C33.0221 38.1671 34.9249 37.8077 36.8489 37.7437C38.382 37.6057 38.6503 37.4524 39.2405 36.4483C39.9367 35.1268 40.8605 33.9384 41.9693 32.9376C43.3832 31.7013 44.9525 30.6551 46.6375 29.8255C46.7133 29.7825 46.7726 29.7154 46.806 29.6348C46.8393 29.5543 46.8448 29.4649 46.8215 29.3809C46.5623 28.7215 46.2197 28.0981 45.802 27.5259C46.0779 27.4339 46.3845 27.3496 46.3845 27.0736C46.3845 26.3071 39.7004 16.6335 37.8454 14.8091C37.6538 14.6175 37.3778 14.3645 37.1249 14.3799C33.2922 14.5945 29.5592 18.2125 27.3976 21.3706C24.9217 21.2786 23.3196 21.0563 20.4988 22.2445C18.5074 23.0898 16.712 24.3371 15.2251 25.9085C14.9951 26.1461 13.4314 27.8018 13.4084 27.9321C13.3854 28.0624 13.4314 28.0624 14.5429 29.3042ZM45.2041 29.0896C42.0077 29.6338 39.9687 32.2937 38.4663 35.1835C37.7994 36.4713 37.8607 36.5326 37.1555 36.5173C35.9224 36.4474 34.6854 36.4936 33.4608 36.6552C32.5627 36.7895 31.6796 37.0103 30.824 37.3145C28.877 38.0043 26.6464 40.2119 25.4583 41.8523C25.433 41.8861 25.4009 41.9141 25.3641 41.9346C25.3273 41.955 25.2865 41.9675 25.2446 41.9711C25.2026 41.9747 25.1603 41.9694 25.1205 41.9556C25.0807 41.9417 25.0443 41.9196 25.0137 41.8906C22.5224 39.3228 18.1149 34.8156 15.8996 32.2247C15.7923 32.1097 15.9763 31.9411 16.0836 32.0637C17.517 33.5968 21.2193 37.2685 25.19 41.2621C26.5314 39.5527 28.601 37.4831 30.6477 36.7626C31.7637 36.3645 32.925 36.107 34.1047 35.996C35.2095 35.9121 36.319 35.9121 37.4238 35.996C37.8761 35.4748 40.1143 29.5572 45.1888 28.898C45.2036 28.9089 45.2158 28.923 45.2245 28.9392C45.2331 28.9555 45.238 28.9735 45.2387 28.9919C45.2395 29.0103 45.2361 29.0287 45.2287 29.0456C45.2214 29.0625 45.2104 29.0775 45.1964 29.0896H45.2041ZM37.1172 15.0008C38.6503 16.0739 44.8898 25.3106 45.7023 26.928C44.2924 27.3747 42.9313 27.9628 41.6397 28.6833C40.4166 29.2965 39.3457 30.1747 38.505 31.2541C37.6643 32.3335 37.0749 33.5869 36.7799 34.9229C34.0281 30.4463 30.1878 25.5176 27.6352 21.8919C27.7885 21.7922 32.0964 15.2997 37.1172 15.0008ZM20.6674 22.6661C23.4653 21.5393 25.0137 21.7999 27.3286 21.8995C29.6282 25.8242 33.7598 31.3585 36.481 34.9842C33.9694 34.3899 31.3265 34.7534 29.0686 36.0037C27.7119 36.7702 26.0562 38.6099 25.0367 39.752C23.5649 38.5716 15.0718 29.5265 13.7073 27.9934C15.8076 25.6172 17.747 23.8312 20.6674 22.6354V22.6661ZM6.63994 42.1589C6.45048 42.026 6.22651 41.9509 5.9952 41.9427C5.7639 41.9345 5.53519 41.9937 5.33683 42.1129C5.19238 42.1774 5.06204 42.2696 4.95324 42.3844C4.84443 42.4992 4.75931 42.6343 4.70272 42.782C4.64614 42.9297 4.61919 43.0871 4.62344 43.2452C4.62768 43.4033 4.66302 43.559 4.72744 43.7035C4.79186 43.8479 4.88411 43.9783 4.99891 44.0871C5.11371 44.1959 5.24881 44.281 5.39651 44.3376C5.5442 44.3942 5.7016 44.4211 5.85971 44.4169C6.01782 44.4127 6.17354 44.3773 6.31799 44.3129C6.54875 44.2624 6.75873 44.143 6.92007 43.9705C7.08142 43.798 7.18652 43.5805 7.22144 43.3469C7.25635 43.1133 7.21944 42.8746 7.11559 42.6624C7.01174 42.4502 6.84586 42.2747 6.63994 42.1589ZM6.13403 43.692C5.59745 43.8606 5.27551 43.692 5.1452 43.4314C4.89991 42.8871 5.20652 42.0516 6.00371 42.2969C6.56328 42.5039 7.01554 43.4467 6.13403 43.7303V43.692ZM45.618 7.08249C45.8403 7.53474 46.8751 7.36611 47.3274 7.22047C47.565 7.14381 47.7183 7.0595 47.7413 6.82954C47.8103 6.25464 47.8869 1.27219 47.6263 0.789275C47.5994 0.738637 47.5581 0.697078 47.5077 0.669805C47.4572 0.642533 47.3998 0.630762 47.3427 0.635969C46.5249 0.6337 45.7112 0.752522 44.9281 0.988573C44.6139 1.18021 45.3421 6.57658 45.618 7.08249ZM45.0891 1.17254C45.7972 1.07124 46.5133 1.03787 47.2277 1.07289C47.2737 1.64012 47.1511 6.55358 47.1434 6.63024C46.8196 6.74629 46.4738 6.7882 46.1316 6.75288C46.0779 6.57658 45.986 6.10133 45.871 5.50344C45.5332 4.0748 45.2722 2.6291 45.0891 1.17254ZM5.8964 35.6894C5.96995 35.7271 6.05139 35.7467 6.13403 35.7467C6.21666 35.7467 6.2981 35.7271 6.37165 35.6894C6.66779 35.5067 6.90266 35.2398 7.0462 34.9229C7.06569 34.8722 7.0717 34.8172 7.06364 34.7635C7.05558 34.7098 7.03372 34.659 7.0002 34.6163C6.63227 34.1793 2.61565 29.5265 2.12507 29.8178C1.52274 30.2077 0.951271 30.6434 0.415707 31.1209C0.394122 31.1402 0.376829 31.1638 0.364946 31.1902C0.353062 31.2166 0.346853 31.2452 0.346719 31.2742C0.331388 31.6728 4.7926 35.2448 5.8964 35.6894ZM2.21705 30.0171C2.77662 30.4233 4.66229 32.7536 6.40998 34.8156C6.33479 34.934 6.2417 35.04 6.13403 35.1298C4.29655 33.9538 2.54216 32.6527 0.88329 31.2359C1.29914 30.7992 1.7448 30.392 2.21705 30.0171ZM14.2592 13.1074C14.4279 10.1333 16.1602 8.75353 17.9693 8.40092C17.4557 10.2866 17.54 12.7395 19.4027 13.0538C20.2918 13.1994 20.7288 12.7395 21.3727 12.2029C24.1245 9.90332 21.9016 7.60373 18.7971 7.7647C19.9546 4.59127 22.6298 2.00806 26.1788 1.92374C26.2113 1.92374 26.2425 1.91082 26.2655 1.88782C26.2885 1.86482 26.3014 1.83362 26.3014 1.8011C26.3014 1.76857 26.2885 1.73737 26.2655 1.71437C26.2425 1.69137 26.2113 1.67845 26.1788 1.67845C22.3461 1.6018 19.3337 4.36131 18.1456 7.8107C16.0989 8.1633 14.0676 9.69636 14.014 13.0614C14.0109 13.0775 14.0111 13.0941 14.0145 13.1101C14.0179 13.1262 14.0244 13.1414 14.0336 13.1549C14.0429 13.1684 14.0547 13.18 14.0684 13.1889C14.0821 13.1979 14.0975 13.2041 14.1136 13.2071C14.1297 13.2101 14.1463 13.2099 14.1623 13.2065C14.1783 13.2032 14.1935 13.1967 14.2071 13.1874C14.2206 13.1782 14.2322 13.1663 14.2411 13.1526C14.2501 13.1389 14.2562 13.1235 14.2592 13.1074ZM18.6208 8.30894C19.7629 8.23229 21.4646 8.58489 21.9322 9.61971C22.2005 10.2099 21.9322 10.9381 20.9817 11.7353C20.7237 11.9939 20.4293 12.2133 20.1079 12.3869C18.9581 12.8775 17.6856 11.4594 18.6208 8.30894ZM20.8131 116.719C20.0725 116.521 19.2997 116.473 18.5403 116.577C17.7808 116.682 17.0499 116.938 16.3906 117.329C15.7314 117.721 15.1571 118.24 14.7016 118.857C14.246 119.473 13.9184 120.175 13.738 120.92C13.3975 122.468 13.6859 124.088 14.5398 125.423C15.3937 126.759 16.7431 127.7 18.2912 128.041C19.8393 128.382 21.4593 128.093 22.7947 127.239C24.1302 126.385 25.0717 125.036 25.4123 123.488C25.5577 122.741 25.554 121.973 25.4012 121.228C25.2484 120.483 24.9496 119.775 24.5221 119.146C24.0946 118.517 23.5467 117.978 22.9101 117.562C22.2736 117.145 21.5608 116.859 20.8131 116.719ZM23.1817 122.967C22.8741 124.193 22.1378 125.269 21.1059 126C20.074 126.731 18.8146 127.069 17.5553 126.953C16.3994 126.501 15.4398 125.656 14.8453 124.567C14.2508 123.477 14.0596 122.213 14.3052 120.997C14.5921 119.74 15.3215 118.629 16.3602 117.866C17.399 117.103 18.6775 116.74 19.9622 116.842C21.1296 117.324 22.0894 118.203 22.6727 119.323C23.256 120.444 23.4253 121.734 23.151 122.967H23.1817Z" fill="#F9C784"/>
</svg>
